<mxfile host="app.diagrams.net" modified="2024-02-08T20:28:29.363Z" agent="Mozilla/5.0 (Windows NT 10.0; Win64; x64) AppleWebKit/537.36 (KHTML, like Gecko) Chrome/121.0.0.0 Safari/537.36" etag="zPpmmy6Y9s7y2DTQHp1F" version="23.1.1" type="device">
  <diagram name="Page-1" id="z6x_sgUEtquyw34I1nYC">
    <mxGraphModel dx="1434" dy="786" grid="1" gridSize="10" guides="1" tooltips="1" connect="1" arrows="1" fold="1" page="1" pageScale="1" pageWidth="850" pageHeight="1100" math="0" shadow="0">
      <root>
        <mxCell id="0" />
        <mxCell id="1" parent="0" />
        <mxCell id="uIATgTCMKuDsSCNxfTma-2" value="" style="shape=image;verticalLabelPosition=bottom;verticalAlign=top;imageAspect=0;aspect=fixed;image=data:image/webp,UklGRnY1AABXRUJQVlA4WAoAAAA4AAAA7gIAKQMASUNDUEgMAAAAAAxITGlubwIQAABtbnRyUkdCIFhZWiAHzgACAAkABgAxAABhY3NwTVNGVAAAAABJRUMgc1JHQgAAAAAAAAAAAAAAAAAA9tYAAQAAAADTLUhQICAAAAAAAAAAAAAAAAAAAAAAAAAAAAAAAAAAAAAAAAAAAAAAAAAAAAAAAAAAAAAAABFjcHJ0AAABUAAAADNkZXNjAAABhAAAAGx3dHB0AAAB8AAAABRia3B0AAACBAAAABRyWFlaAAACGAAAABRnWFlaAAACLAAAABRiWFlaAAACQAAAABRkbW5kAAACVAAAAHBkbWRkAAACxAAAAIh2dWVkAAADTAAAAIZ2aWV3AAAD1AAAACRsdW1pAAAD+AAAABRtZWFzAAAEDAAAACR0ZWNoAAAEMAAAAAxyVFJDAAAEPAAACAxnVFJDAAAEPAAACAxiVFJDAAAEPAAACAx0ZXh0AAAAAENvcHlyaWdodCAoYykgMTk5OCBIZXdsZXR0LVBhY2thcmQgQ29tcGFueQAAZGVzYwAAAAAAAAASc1JHQiBJRUM2MTk2Ni0yLjEAAAAAAAAAAAAAABJzUkdCIElFQzYxOTY2LTIuMQAAAAAAAAAAAAAAAAAAAAAAAAAAAAAAAAAAAAAAAAAAAAAAAAAAAAAAAAAAAAAAAAAAWFlaIAAAAAAAAPNRAAEAAAABFsxYWVogAAAAAAAAAAAAAAAAAAAAAFhZWiAAAAAAAABvogAAOPUAAAOQWFlaIAAAAAAAAGKZAAC3hQAAGNpYWVogAAAAAAAAJKAAAA+EAAC2z2Rlc2MAAAAAAAAAFklFQyBodHRwOi8vd3d3LmllYy5jaAAAAAAAAAAAAAAAFklFQyBodHRwOi8vd3d3LmllYy5jaAAAAAAAAAAAAAAAAAAAAAAAAAAAAAAAAAAAAAAAAAAAAAAAAAAAAAAAAAAAAABkZXNjAAAAAAAAAC5JRUMgNjE5NjYtMi4xIERlZmF1bHQgUkdCIGNvbG91ciBzcGFjZSAtIHNSR0IAAAAAAAAAAAAAAC5JRUMgNjE5NjYtMi4xIERlZmF1bHQgUkdCIGNvbG91ciBzcGFjZSAtIHNSR0IAAAAAAAAAAAAAAAAAAAAAAAAAAAAAZGVzYwAAAAAAAAAsUmVmZXJlbmNlIFZpZXdpbmcgQ29uZGl0aW9uIGluIElFQzYxOTY2LTIuMQAAAAAAAAAAAAAALFJlZmVyZW5jZSBWaWV3aW5nIENvbmRpdGlvbiBpbiBJRUM2MTk2Ni0yLjEAAAAAAAAAAAAAAAAAAAAAAAAAAAAAAAAAAHZpZXcAAAAAABOk/gAUXy4AEM8UAAPtzAAEEwsAA1yeAAAAAVhZWiAAAAAAAEwJVgBQAAAAVx/nbWVhcwAAAAAAAAABAAAAAAAAAAAAAAAAAAAAAAAAAo8AAAACc2lnIAAAAABDUlQgY3VydgAAAAAAAAQAAAAABQAKAA8AFAAZAB4AIwAoAC0AMgA3ADsAQABFAEoATwBUAFkAXgBjAGgAbQByAHcAfACBAIYAiwCQAJUAmgCfAKQAqQCuALIAtwC8AMEAxgDLANAA1QDbAOAA5QDrAPAA9gD7AQEBBwENARMBGQEfASUBKwEyATgBPgFFAUwBUgFZAWABZwFuAXUBfAGDAYsBkgGaAaEBqQGxAbkBwQHJAdEB2QHhAekB8gH6AgMCDAIUAh0CJgIvAjgCQQJLAlQCXQJnAnECegKEAo4CmAKiAqwCtgLBAssC1QLgAusC9QMAAwsDFgMhAy0DOANDA08DWgNmA3IDfgOKA5YDogOuA7oDxwPTA+AD7AP5BAYEEwQgBC0EOwRIBFUEYwRxBH4EjASaBKgEtgTEBNME4QTwBP4FDQUcBSsFOgVJBVgFZwV3BYYFlgWmBbUFxQXVBeUF9gYGBhYGJwY3BkgGWQZqBnsGjAadBq8GwAbRBuMG9QcHBxkHKwc9B08HYQd0B4YHmQesB78H0gflB/gICwgfCDIIRghaCG4IggiWCKoIvgjSCOcI+wkQCSUJOglPCWQJeQmPCaQJugnPCeUJ+woRCicKPQpUCmoKgQqYCq4KxQrcCvMLCwsiCzkLUQtpC4ALmAuwC8gL4Qv5DBIMKgxDDFwMdQyODKcMwAzZDPMNDQ0mDUANWg10DY4NqQ3DDd4N+A4TDi4OSQ5kDn8Omw62DtIO7g8JDyUPQQ9eD3oPlg+zD88P7BAJECYQQxBhEH4QmxC5ENcQ9RETETERTxFtEYwRqhHJEegSBxImEkUSZBKEEqMSwxLjEwMTIxNDE2MTgxOkE8UT5RQGFCcUSRRqFIsUrRTOFPAVEhU0FVYVeBWbFb0V4BYDFiYWSRZsFo8WshbWFvoXHRdBF2UXiReuF9IX9xgbGEAYZRiKGK8Y1Rj6GSAZRRlrGZEZtxndGgQaKhpRGncanhrFGuwbFBs7G2MbihuyG9ocAhwqHFIcexyjHMwc9R0eHUcdcB2ZHcMd7B4WHkAeah6UHr4e6R8THz4faR+UH78f6iAVIEEgbCCYIMQg8CEcIUghdSGhIc4h+yInIlUigiKvIt0jCiM4I2YjlCPCI/AkHyRNJHwkqyTaJQklOCVoJZclxyX3JicmVyaHJrcm6CcYJ0kneierJ9woDSg/KHEooijUKQYpOClrKZ0p0CoCKjUqaCqbKs8rAis2K2krnSvRLAUsOSxuLKIs1y0MLUEtdi2rLeEuFi5MLoIuty7uLyQvWi+RL8cv/jA1MGwwpDDbMRIxSjGCMbox8jIqMmMymzLUMw0zRjN/M7gz8TQrNGU0njTYNRM1TTWHNcI1/TY3NnI2rjbpNyQ3YDecN9c4FDhQOIw4yDkFOUI5fzm8Ofk6Njp0OrI67zstO2s7qjvoPCc8ZTykPOM9Ij1hPaE94D4gPmA+oD7gPyE/YT+iP+JAI0BkQKZA50EpQWpBrEHuQjBCckK1QvdDOkN9Q8BEA0RHRIpEzkUSRVVFmkXeRiJGZ0arRvBHNUd7R8BIBUhLSJFI10kdSWNJqUnwSjdKfUrESwxLU0uaS+JMKkxyTLpNAk1KTZNN3E4lTm5Ot08AT0lPk0/dUCdQcVC7UQZRUFGbUeZSMVJ8UsdTE1NfU6pT9lRCVI9U21UoVXVVwlYPVlxWqVb3V0RXklfgWC9YfVjLWRpZaVm4WgdaVlqmWvVbRVuVW+VcNVyGXNZdJ114XcleGl5sXr1fD19hX7NgBWBXYKpg/GFPYaJh9WJJYpxi8GNDY5dj62RAZJRk6WU9ZZJl52Y9ZpJm6Gc9Z5Nn6Wg/aJZo7GlDaZpp8WpIap9q92tPa6dr/2xXbK9tCG1gbbluEm5rbsRvHm94b9FwK3CGcOBxOnGVcfByS3KmcwFzXXO4dBR0cHTMdSh1hXXhdj52m3b4d1Z3s3gReG54zHkqeYl553pGeqV7BHtje8J8IXyBfOF9QX2hfgF+Yn7CfyN/hH/lgEeAqIEKgWuBzYIwgpKC9INXg7qEHYSAhOOFR4Wrhg6GcobXhzuHn4gEiGmIzokziZmJ/opkisqLMIuWi/yMY4zKjTGNmI3/jmaOzo82j56QBpBukNaRP5GokhGSepLjk02TtpQglIqU9JVflcmWNJaflwqXdZfgmEyYuJkkmZCZ/JpomtWbQpuvnByciZz3nWSd0p5Anq6fHZ+Ln/qgaaDYoUehtqImopajBqN2o+akVqTHpTilqaYapoum/adup+CoUqjEqTepqaocqo+rAqt1q+msXKzQrUStuK4trqGvFq+LsACwdbDqsWCx1rJLssKzOLOutCW0nLUTtYq2AbZ5tvC3aLfguFm40blKucK6O7q1uy67p7whvJu9Fb2Pvgq+hL7/v3q/9cBwwOzBZ8Hjwl/C28NYw9TEUcTOxUvFyMZGxsPHQce/yD3IvMk6ybnKOMq3yzbLtsw1zLXNNc21zjbOts83z7jQOdC60TzRvtI/0sHTRNPG1EnUy9VO1dHWVdbY11zX4Nhk2OjZbNnx2nba+9uA3AXcit0Q3ZbeHN6i3ynfr+A24L3hROHM4lPi2+Nj4+vkc+T85YTmDeaW5x/nqegy6LzpRunQ6lvq5etw6/vshu0R7ZzuKO6070DvzPBY8OXxcvH/8ozzGfOn9DT0wvVQ9d72bfb794r4Gfio+Tj5x/pX+uf7d/wH/Jj9Kf26/kv+3P9t//9WUDhM8SgAAC/uQsoQ3zCm8z89Ctu2bVPZO2kD8A/EA+HAWHwoGoaCIxEIJBwfHwPBgnEgPI6Dto0EKeYPe2Z37x9BRExAq6/7Q+UJekdn1x15snjql5QrG10qhCtdHlhcHE/KXTLKebDcS8ar0soLjHtGKzefm1+Y3Sq3F86NovCQzObIh519CwBTR5JtW2ZSTGjaRTOApmn8/z9amRW2QRISc861IvoPC5KtqtEBFkXExLiK917efEmSJEmRJLzhief/H4XdjnSKiqGM6L8kSHLjhpm87qxB+AIpAqT4Ona7+v/+Y/vP9p/tP9t/tv/sbGhrw5fy1m7vfV3I9fqseglO7WmYM/frqarB7Ga41K+XqgW9j2F/uQxR2e5h+HaNU8Xu4qVtvmDvlgYFo/ctVL7mqLBtXfs1S9U9u9N5zVRB7Veka65qu9VRpWu6Smqrmu8COfvc8ePy3CA3u7muskl9hQuOasyX0DQ+li+VmSM26C5IqvNdK38jJu45k3SkX7C047qc+C157mAMvkIX3qI67yWsInM8CU+r8CBW4FnzWnUBVE1xe+mJ4Y0bRJW5vfRgK2/cYCrH7CVGhXboSZGkUmL4plIplfFOvl/sMkcZL1Ef/ZMXYOtCuv0CnsOJIirH4q92tMup3+b89MlrZbvgbFV8tLMdmwWU5i43q/OMFmeBpgs0Z7kuy1vX+IbTwkU7jhccYe0f/ZhmzZ97mxlovJAS7p/ska6XmfFvUm2yJ+rZh+EUkqmKPb/YuKRRsjCcEwjMw6BFYVj36B+2HoVkMoMoC8NsK4kDXW/cFIPSgcsrFN1fir6ycUuSAyrzqBjtkpaXwL1L47qEZZkhucZxMUGJFYTbW/lLPkphiifTf3/wCXIi+av+yj64BFE5hXc2Q9GVbGw+QVB+/LtQGAVB+WnvaP08xeXFQuvPB1PRDeeRWHj7u35pMQXQX0Gx6reTUgCehxdDmVFiK9uReUi6+MoTSEgBqJeXAr8ezQPq1XVMvBLMnPJvtDj2vphIZ7CYROUw+gd7i+jOLOdtcRFeSvUtONkINa28J36HyscEzJmE4lr5l3Tfcmt1Qv/A6zgtt1YFFICFeQ1o+12dIfz2CfQaV6fpk9/MLRiiacrabyWSvomUlZJDsIYjNUqxvE4dO3z1afmjbXB5vdHbteVgJhoh5DDzEjD2V3gTaw1T02n4UDR9YXdYw2UxzX3rBubdTvNiNikJ1e6tDH6DU9aH0qDVEyY5xYG6vllB4GopfKlYygVWZa+WX4uarviM0Qq0w+J/xSwigItNmUVkhCAcqn+4SFF1Ad7b1LqOcRqUeI/U83391HsMl7M/oEclvWrrClyW1WHmwjn1fBsm53/AzAXVZ6IpHsvZU7WgCH8JE45TogpXD0t+TBvBeVx4uwjSJZsANSassq1W+hKOUyVN95N2BrlQMjQ7L9pU0autJ3/h8So3HZtwKhpcLupUVmsVCGmKzTszkjSkL+Hs0tFgoVK59ZLNLuEXmOnrnM3I5q+8DoXWVc1KqQ52B1hXtwsVgCqCtpZRPlWUj0WjiuskstVNYF2pz3UMefFJMKy3bZHzORwCFVDrLulAE49lL2bqIh8rMlOX65JOIKqSqbtZIwp/LdNZqcslH+vwFyd1g0Hs5S+Ti5MaxMnVHM78g4/aAuFdb1QdYJzaY6PqCkYUb5fuoKFIajA5521CD6rX92zWTK5YTeUfX1eDErTmsS/26Qwn54eDy0oX3mkHsi3n/BXMLFTq1SXRSbzuIza2pauqoKgA3O5ki8oyDezu5NjdQrMzsytjswg1UTCrY1NnbozKB8SDy5WT781O9CEVsoIzSyMdG+63hcVaH0IuhStiDBCpCkEQDa/89qDhBdlfZSwUXu7381JqXCD7a6D0MyWSnmglgFKaiOmxCZCByiPYtPrjqQg8P06ReM/ItcV+l2mQxTPkolxHLnWP3BWykk2P+TX9j7tG1ONyvJfYplUJaYdjW+iTtr3mVn1vW2w0uDt5CrxHuRwRdWBNIV6izONo849kXPeTz0uEeZxulVnnkth5Xjz9B71CIWSPSyQvHPKxFufHxE5tzHC22QMTLVJ4Eebsm29JlA52n5YiJe8e4lEZeZoqoE42fG/uBc2Ybradsp5sIIx8Bh5iKTL3JhKQyY+Vj1WXkQO3jl+ZPmwQxGsJTsqTkXlbkNCGBTiZr2GU2CYw+HO8UTDYtRsFBwE1hAMwjBKbBQTEth08cWLik4cNuODVNs/ppKgEuCIgBApiHhPD2bS49KySgTYNPAkX55xhZVgXRlxilptwkM2LNr5Iz92LKwx2pQ1SYufSydNVhbxKuQqInUvr9enIq2xF2Ca49LCaLG5jpEH1WNzIuDSUWizSnypszosiSmuow6KVUEBUXqLx2s5Ib6UViITeKbj0CipbfGwVpBVULVpG45FGiTXIrEt2YeBFwyXyzZU3C7p6a/YQdyvTcplSby4nIRRS0N6YdZL7h702S/fYbKSwDuJIKolYUw8ppSohJeBHZi/taUmjqfiLWgQphUWWZ3v9wnbymei5VO/Kzt9PPulJYp1uQt9PPg+CpLtehrB/sj8wFHFE4YUw/0oM0gVd4m+eKIaWkqQOTTtXik2TkFEESaqXbwxdV0qjF2mjrJcSw2ntA7njb7WFLoVKnBtkvZRwjulcTPXrKLmSB7Mz1ttXeGpGjehj2TtbHM4nSfR2ev2467bZkhD6NVCehi7WLUPtx0R1aQA7yVP51HYLtV+j2ZbgjjGgCZWQLbsgVPhdn6p93ieCOglBuEiyBFA0ODjxb2nRrLVtFxIyCpcLjrpK4k4eK3lqf5/oQnmVak65J4/NDjeNC693LVZBnXwnJ0T5hjS9oMh9Fio4mrZgDFXiyWOTWXk7eY2IMnIio3d29Tdp+hDLZ/XbZJmZ+WUSNlausHm5fc60wjB2UJKRr385a6hbSIeI9gS1NGUK2MyQzHeGrgUn6un3MHhJza73dYmDpdxMQVPymaDzLUt6rHQ8wg63txXJupjDKgMveAssIUjPAw/jG4p1IYfV3MAUICCZrDXaYZX6RLAuY/Sg8IsF91GSzbpsAN7WYZD0R+3vIvDoHVyDztuSL3eruSk1HEct+akiaN6WgBHVmMlugayP+RH3oU2QEoB3Q60eUXV9hKJCQbYyx5Avuqioqhlw9Tibt10O4aJZyup83YJCGKQXLpIiroLjPWpsFaDsSrTojsLavCeNq+Mh0iFZVD2m6vrkLUDzZSSLiLI1/POiemh81UOu6I7Udhr0oJCQ/r1cUfWIRHrELHgU/eTSlaAAixKEqiVBUGb+RgTmW6BJZM+3s4CL4nFz8JA4uQIVXuiW7Jqj9vBqOmfB4OTKFNVQXnP9akHXVNvJFPVVGApLJ5ABlRpVFZDIsSiz2U5UNEpiruDoCw0lZFkmGowj6ntNuKPKs0OWKPy47iKiLkgDMpOfcMgKZbo5F1EdtzTVlie6G9NwJjr7IR6cTvKcxVvdEOgN3GkBTWtp4Zxq/EWzCo+1jO3DDjGDXyyD3/mSJGL70OMN5qoWwp88ZWmOLS/12pDc6fCYL/1gtBYYyiTjKDISY0qrgO0jzjH+ol8lEBHDLhl7DlnHDx4dh8CRfwA6HBKDeWOIPiR7aKnusxm5kmv/hCdfFI3Vb2f6aFuOHtMrwufatJ0gXy8u8YUJZnXaD5Wvl+OGqkaafgL/cWTKWDFuaG/McpSfRwKwckN+ROh/Y5aoVR3J2ZIhxd+9MavUfewh5CedFlZipkWHzIjqX0lO1VEVV7sxiznOhMCrJOeKaH2Trm6pOg3IR16Kq928MIvV9TUfV4yr/rk02tpUU2MDaL/2EeNqmiBp3Nc4NfOS1C+81fee7LU+lUemlo+H/FT+4AlHCkFIMD3QkM4kS9DtbRzpfEroh5uNzcrLNkrtH53v9yFKT14nU0HoN1j7EdYO8hMEOSVQu0J7wBbKAwF2j/F4+omf54wtGXp2eEN3z4hSjYbAswRTgT9/dGS8razsdwwFf39HTwFPAAP8uEOKsI/dFIrQy13iRXP/je0REWd7Y26PJUdVnt4wC8ZWgn54j/kdYGNUo8g9QVQpp5R9oPTzzU9fnVHlBXzevoSq9gkOsxRDkY5wvf5txra8IlvWUmLwQ2psbc0ij+X21m0+/t8VnFzdu6ddN8J4gkwZDZ6ag3u1q2pmmHuCuv/0f+cxc7mcOLI8UBNmbMv93Fq3yFsU+iFuEu/5R/7TY6ZhpvonQSScMj6WDvNeiutOfhc/D3c5HH8BmVWfPlwT/98N3Ij2os7LiQtZg8r7XdGq4b62MwUduys8eXVivzFnBvY/4BEe6zlZ8XxQT4jQPjzjEB8qct7YT4ItwO3zwoPXlFh1/GYhdWL/0wQoExOf2zMWKV5qLMOlLdHWu/0t26ZQdFFnTDKZjAo38tJnA75C58eIez1/0GWHQuy/8B4OfG+2a+xjLW9H/gDf7gkKhXaPHmmt5HBa9j5wHILaWSf0XVYwOnFjuL0H4IlXmps2qbOV+oOjJuIae44H9RisIxZaaHydmKwEy0/+VWgI6Y9oaI39YzwoDaeJoaGF6hG3nnJy8jAuY46yBwxRcp3nJkw6cd59ysOGHi8i2E7XedpwkvrPr7t0nslLUjhvP/ZF06bZtxQ68lIEEpr3BH3mMq3tlRnn/ae8+IinktLS1RXSfeZHPTzOG5B7R1azzFtCLTlQLhL5Rw2n1V5+TM/AJZwhu+tigxWGf9kWCAn6+5RSs78U8qcdPe0pKCju11AzNC0II5hD+GqdggVzpvJkWp2dFAVnUFYXz+G6XQPLKkZ3lFYcMtGG6GL9l2Bo2SviLC0DmQ0tIzCPw3rcyyo4DyexGLCGcKZWUVPtpIBTAhNO/hkRxe8yifBawcZYNJafURwNrpmM7nJQndTBoUwYbgXT6AdJUTaMo80S5Io476Lzupih/bQ4Zj+RIQyfBUQ0hEmDb2wkqQTg8kL4UhUQX8taa9MJa56XAf1JKPRODRTf4VuPugSJHMdzUhPDVjzrDuJTm9iNpqJjiBS883xFrUav7mZB8WMv5nxcPM1zNydg+3E8Mdfy1BSU53qHzRZS5SKE11JMQVvN02SZ50jahZsQhtGJqaGpxdtiMgC0btiRPzU5HlAV/AuXIE1WjWY1IV0I2LyiTMrpnCa6Jzkb/TPuDKHao6+eKS3D1NCTo2uhze94ag87Ck6ojvgrQ0XOieh5urgg3PG2s/OpGpGyF86E6ZDo8ViqFr3XUrKdKq+Cw7NDezEDjfOGZZqMtu4o0CXVdUIhjzklwqoIi5V4NIae9UrJEjkLHsLtvCrC3jgNEkPPuqFkirrRQ//PD67wOZou2nnXSzSZonPRPV0CIfo+dx0CtGqUjtJ7oqkVEAT4roYwvuEJI75ZFdQQ6As80dQdm341E1vMAhfzCBd6fYJ7f0TC1aJFTiejRyKOm6Lv36+wawMv+qpJM5phXkWDgRaphr3a52myBBoLAZ0wbjeclghDmFMG8wzOdMkBOMiylzTQ1WEQ++PFJApocvGJ+35icQgkhXr702ltjf2fXhH4/Pa33wmXsMBjIRMSd8lk1ZX9JCBGR56VAJGLE4hrl0wr0NUrxJmC13XqNndIP1RVAEgsVFqOkJr2jtw7e+5UWIEYSI/hZmjKkrPCg+50IM7dO2msOUIO1OKV0qgURWUDrqrAkbIeQCfKBB3o9Psc0GOhPRcBK29X0+R08kXeYNO5Xr1/O02nZAm9AuxFCBopp8TR2T+rFtpNs7t50XAiV1WnrI2oAfc+dOKE95qVFDnR8LCsMb7wlLzMWEKRxzHPlGe8TjO7qVLZEdWSKaiPZfVuqdZlO9jyHhgzbjunxSEGdjM14W5gczpibMKe5PoZr9jqn/QgyppzDclVkC9SUAghVVVas8tygxMHCU4/b+bdyUbmU3yuye2KhGzxkHOfDgArRhce0RUw7WQ6hnxdEpgfnZou2PB0bOnEpswscKnGPSjIidz10H/YAoixRZpPi5qRS2vazP6AdwZ7AZJc/0jdFzWKTIRQ+6FnrGI79NME7X84aKDlQdpjrF7TiHhVOk5LJjfXfgv9VStZiL3TV0c/cTXopzkdV3fH7JtaHSDdnqAFCNkC8qcNj4OiYh9tb9FU+I54jWZCEfls0am7SXMB9actcBEucuDIIM6mA4VukHcMkIdYJnyrEkqIFbAssepQoTs9sGTcBhy9pW51gpvbqIezoCwMujN1e2bM6/TqaUjVWZ5hQl/0odK1Lt2TDkUOgMi+NxjsZCmfMsC4LrsVrQPOzMROGIPCbNMGBYiwF30wKxxWmgyWltYI7umd2/MGEIUiRCr2zKiKRG9YCP6BYiETGFGWBFt+QCEt8dl48zoViECexLuCQyEJJxVic5rk+l0UYrswIMygHpgF2O8flIWwBCVi1+PDPFmBQmL/8M2fhhFikk0iKvI3F3IDpBVlihjZB5mPRrj9+kG5oMSxZ3jWUomGGc5fyiZYnyScNDxGLhmExwWFGn6vwr6GaKkpXdQQrrM8PEOcRMHQF4mw9IVKbe7i4G22lEovpFEvU4/+Ne0sXntiDU7Y5J+H416SlodpxJ30uPHVEzaoi0Y4tBcBHup++HCC8SJdxM0+gJ11ZQQi45JhSVKY7WEZHauFn/MjxY+iHucqJhx4oQEZFbWzGUjUaEcnuprzI4WPkaEyGv5iDU7g0PeVEAN0hgOdSJN+JPv5/0UNRqUSicwt6DZ/ps+1wkziwerPYqt+NGuLSpQ1JaCK1yNtl4o6KfrTb+L+eXDIvEFGIHn5QK8WfhLlMt8lu1BjQ14jgpUBez3ReJHwXbt8vhzOSf+rJ3Ng4KM8quKwx4mM4/7Oz1vipGd/Yw6Q1hq/rhR6OAHtppMnpqy6izcoE0Fu94UizSKgnd+4VHPiupk0rjYFCAhgFg87noD2kSM2jK5Eac4niOC9nWFrR5n1DA5POINmmG/u4MCAum5MEpH/ZNs5sbHGHFSgQHI6LYlos36l89mpVKM4ucxBXAcC6fZpA6bjGcIgTi6tWFUufQE3AhfYZT9UBfqcwSdTnTgY/FDMRZj0Mz0/lX4EPK1ZuCWUcVrKYe5iD0TZwH6vhiq+uqo7YyIdFF5gYf7vNd7SF3Vw6OF5i67mY7wVyENAD40kM0oc6AuyjzLhmzRi4VZVNk7BwSddkX2U8V/FUdud+XZV+clXFNArso/y5h2P7I6cLdhxIgERd6jIwbYyXLRK0VsMHEJ2A5JyE8DetMkjdHugqAOk0khl51K+xbH1T+poIRXsu1aEHFntJXypVDoaVIRbSBfVoS4xhYVLSbNQ0zPUU9/0LlpD8WsUurdYfpLVxJH7C2A+SVcgfRf7bJYxwOdvxSVtCTREP0N3pITBleFWECuzaGKHzt+iZ0uy2kYacWEF2C9bCdztLKp3XaKzEDJept0utIXVFBRS2ljdwNas21fITBr6t8SAp1klgbY9HZhcbIdqP8+YIY2ehRuRoX+Lu5rH0qwST9qeBQFfsKgH9lSDakEhJmx0sOSf5nE0Isa+lsnqYa0BdWRjFsI8M+x6CgtIWJKAyuV8HjxwC1o8kjS2/YlEhDWom/owTTP4WsR5IuY/e+BCxgX6FP1p43xmn1TCj6tnpaooeHCuE7+jhgmPlJoVaHEzgGAGXLTezB3DZT++R10ACqfRn7ONRkpQz0tw4wU1e+mIYtGuw5PWoT9nm45TFKaTEiK69GdAmiqFKkiLVnzBQkXGAvWOl9vICpAcRWcoAHvoevolFwLKGKAnhbEF7hlN0RmyHZRHTb/kgkVJvE3EJAIFtkrSGVIV1KtqIz+rD4XlrL1gbnWz5lJD1BlKkPi5if5c+hpC4q1ezbGQsPdnnyEPKPLmMZWNQ7nHRtUWRyj/JMyPKncwlEhFfwKqsPAtgdCHdIEQu+tgNlTysy2zCLf0t0gfdHBQqbSotbqj+JNfWIjGd5MwxISQ8bc98rd3d0cEoD8xeEd3kwjk8LUC/iMZ++tMxMj+11Rk8CHSUHVFoeu8jEAfXhwPJEaTyC/4LGKTu1BrCl37dcTiJ1dpfPnHnrBxYpO78OTlzKfxbRQc3Qq99rer1JcEZbGFmukx6YL+hYIzktGtZujZlSG4qF+u95TgP8LyRIDutyReHDdB0ndU5BQdkEhtXICh4Ynnbq9T6nMtK7ieiWltBmBWEp6IGF66XaX+ukiLZeUGUmufHoG+I/b5jU+iPgfWsNZ1T2pP/yW4p2T6ld+Ir22EQ7WeKTCE6go5ijf76XYSf2VYTIwkRUG3ZqHShPUFlkqzWzlLffbaqHhbBEgsINOU9XzXOXnnTPwrXSeZt0XbelRCdVW0nJOEKNr9dW2QHpQhJLlgVqR2KG1CcJJUnhq1abRTpxOe9/tzWYRPwYPIEOkp2tGj8YwjmhvwCNU1zGHg7QbpMOlNnqCHXsZS3aFCaI+BDinuztAchuMWsVZD0k1AI5FWt0jK515fWvCAvff1STtJpsw6G5pY2yd+a0BX+Cvp9nbrNK17H5EE2SdVVSEBtikn+Jd7Yj/iLhomc6FYlE+9NIfkb4DaWNCQMKILZlcSFs42oqNxDWkjIpAxUM0tGpSFFVkcFS3jz/Tu980e9SmydYJnC9amnOB/4vddDEWDRpbKw0Hbo3CAJyL8ezOit6UANmQMvqkeww9rffhdWUvGg8+X95cRdCthahrokioK1INi2Eg5vV04YVo4xw7TYrCPxqgl7NO2EW/XjJ0HJiyn4uQ9ac4NI1IdmOIjk92yZ4XBzlh9cM17G/WvoCEegnD+VgAf8mG8j0j1AoTamP+FRHY7tht8O+IheXpODj5ieUiRB0rlawoZCkh7VMjwpvojM5WL5a0VALlhA0QbYcjZcXUc785U3zBcGzC34P1bJ0xhoBmsf0bGqFxIpT26/TsobuSjHajsnljrchcXthpmfAShiMkJDu7hKwnYflzi/njgQmJsBe/fKgcW1lY+WfJOnPcDST7ohzkwsLYqi8ZiMGPBm1WhfRTC5VVokNuc4vt/VdFQbtHIx9kbnEwdaAH78n0b3019coQ8m9JPPxxcu+XTimA6ZQRQPF20zPcGax+Qdsvhe/IL7iM9JFi6qXwtrCiQi8E2w/sQ88347smB+lMVGKd0LAAnnHFJ7yUFx/59H3Mp4wMnas2RcSRjty7E8v4otZQQvDUimYE8n64YB8Mpo2ZSIKvRg7FfiaLvlH81FJNiIOy/StAa5xD6UQOsW/CSnIkNLyXu65StqAHVzVyFl4jimQ8qnE+rOSxUt4qTf8FVcfvXAirHOdwsAe7RnShLDQNoPm3uoc5jCUgPv4yWIfIjgs5EGbXuCSBuwRAYUw/PexAhzjGPBjNy2BUIUCA8madSC02C0B3UqMIUdawB/jnLw8nxWAP8pId4QEpaA+LTO5EMPYeBrPtKZ6kW4zKg4VhcCdXteiiDPLwIabJl09o7braXqNvzCLJ5X6juItBfil4X6YU4+ILzLwcfeBlwbyu2oITH2BotYBZfhbkM+GeCSmJcTUBG466HlWRTkp6faRHubGck/KsPC15cCNKI7yC6qW0FIU5xfZXhshBUNSJJjZPjPqBeXd3vlyjCTDOk/kVRcPvMygWg01c61znRjPllqtgQJ95qySuwyMIxHyKZIgxUD7z8CiN7fy/XYjHo+qFAthw3lJlkEvdVEt1y0M046nAU5CGQjrUeVDMwjllEamfvwrSTMigZKaghMrjrWphWwI3QMkJoEwS2SFUAjfzEdfyMN8iVIY02VxSZPUOvC2n8TaiIzJ6iV4Vzwq/SJWZP0ktC91PuQRKzweq814Q3M+dHsfKy5+nl8DKKmnQLcvJi5E7Ui0Gc9sAN4mLkLk+XiblopkugsLNnxsQ6UM0rI8qg0vR8G1eB+LDdAxKFBpBPKZkYn/mUrpdIESHkVLoAZDW7XTAiSxk7NxMY6tHd/GE5lBtra2LiadIfnFkBeNYKj7U1O9ERuTl+NAeiU3mEFvLs41KNoJ7O1m2xIkOqPjPNRUNoKKPpqQQb8trc2uSiOTgTAMaKCQFY9b0MregnpDbkWUn6Bg9SJxQ9qOdNPJIlaqukXKCv8GgJWDd/KVmJ6SzQV3hQ1/z3ffwlyN0QtFM5kIcW1JsJbDRcPNimPZKG4l/N4JzxUsFWh/qkC8kcQOfqtrSI/SCDJAnVK7g9cydmYv87oQBq0KKB3C13RdbE/uesUlLejaJ53W2aYwVXO5WLppJOoPBqk2WEuJSmbWKfjT9B5Os4y+2GMTF5xoxZWgs38fV1rJTWsSzYBc5BPCvm9XGN+V7ehNsT0/rCFzSw2eXXBcfbgszf9ZS9GM843F9RzkouKtIWFIB0XkHK6egdQQMCXhVOkK9KXihA1K8rhE3bRnfXsP5R/82MuKNLvKKivcfD/pu4ux8Jg/fXg5wgcJ8Ofc/6B43ZReQ+IwUdD3pqVLNfFjaclFi5K3RQHsksaZVSqEQ4BAN3m4sVS4RQoFkf5F3Xsr7fBnyLgEPNtjhUe+bbGKJIt7Rw159r9Hr6dN4OGWUX0SpxSWHSEqEqwek5+57vp3+1gKn9lA+6U0lhWPMLjT1Dwd7pv+dW2DK9EanPWx1prAuhFCKiglqYW1Ic/L8Sv2UPZUMspVHzpnPIegs2MqN9eD72x/pJMap69DjcJuuZYhiyzlg7JCiok+yjiqcHeUekF5Sq9UDRg7AdZOzlKj1I5MAJScae2oA0ZbcIIyEUcmFhvO9sq+Sx+tNpxO3N3Iq0vd+X/eQzERcFjBJCIN4cbruElUk+IF2enYj2pNVAkjSSezZ9tBr6Bh3dCAiKVEPgS4+EbEsnsqJQ1mgfhCVeAmjaKgikGvqsJnX4JeJIm4GZG9JF5zb2X9OB3UHuF9p+kbRZIbBrEXonIwx689knoC8MO4pJ17cpZLZfJOw6GBdz2zYwiiaXK922Drqj+F1fsEhUL5nZuiiG6Hx6tDzhWigZnUewWwb9JLyYTidG+G7cPLm7hO2Cdira81BOmyVT+erJTzRQhSaalrxipro/girUhU0u0d/uEfRolpEG8twghSi0BIxsWHdHmVBhOfWmMbtjw4l5W3RqQfcNJ8/cywLuBnfdGxR/Q0919sife6RK2OxcGkZry++NnduKqqKat0ZKqkJPRYPJnyezXkAEfwoGd2Yph+rS2XyuaTyWzo0RiF3U4EPljeG0qFZpqbovioYCf0FmjZWP0VH7kY1Oq2qdk0ee7Zpk4JeVaDRiz55H4uIL1aw8CUFzctF9WfkBKOwy94VNC/bBQtHNFEEcAHIP0ciZwVUVE8pmbtFpEW9IZLz+k1E/7tMa2Qpjep6U31lKCsFZK1CKv2dPNXFayeG0mu1wSxNWUZW4GtGfRoCBDmNl0it0P8l7C5dBCyJSebwAq1FjtvwCNDFzjunrKl5oVWWqjKsrTvMS27lr8qXvhCzf40Dld8E6fRUtrJ3bcXBP91NW+SBQFu1NlFZtjsXQcPIy4qCuWk65OsWDh7obMZH8zbFRdQfSyxQbVQcY9YhhpFYi8hwORuqqJMTRDQcndZJQ2sFwsFKfAgo48LLRF12zFxZeRTPYJ7cjHysczNSneKx0kKm3waHW2Yd4hspmTkfxWAc7tZaORSnPXdU9QPQ3C32pU3kPWGmlNLu4BSzdV1oTAd93gBWWWrajoTCIwN+sbtpSa4mkEoE0fwYnpwLw0GemL89fXRb70Nfk+crCEUBuJCcfk77nI0CoBBgrD3YeDN5lveKyZxf96mEXXO8GnSnT0ilWIZF9a2kvIOAK3qoO452OjbTQIJ2MtyPhN5dA1EI5hOPU1cHMhXYcwnEKx8HMBfGUI9Kpv8H4Rg4Mj3VcuXyJK4zcMepldUuP5erYxI3DrF580CVp4ziXT7NTPs/FkKnyEUoTRUNCMgduhC41eOHl4K36KBcnCKjOg6TM5swdUI8f6ik/LqMrXmP5IB1uJveVZy/x174T46pWQtUjC2uaUkYhDaeMtkEztqUNoffz2Q8/OO7aniGXOuL11w2sBVMYyc0VTBITt8CcgJ5M2ZZz1oxt0SvMBKHBSUsTIys7XQ4ZVSlI8TGHxCikVlJ4FgDIBi+kisVnPj649RdEEAAj3+zsiFQlEgrAcRFJTDXpj1x09mJq1FPlIpSc6hbPxB81HzyHqqxNDtEGrMsogJOHlSVVgmq1WWAhASJLqq0UhYWyC571telnK/oAHqGUAuDgejxYr3TnKcoIOR0pBcDAbITKwX0VOIr0kmPCflX4CT3LnsmUN/yzzSEA5YaCfduTEBqiyEx6f3ldBTIROLESbkiyHDkFGFiUHPOtmxAsTuaBEMfUtVkYR+AdQcO+roqtsFY769y6EViHFmTWkfq9JIxj4xY3y8xlcifNuFSYXmSdFZH5lmihW5l1aJdn292qGZk17r+z7fcrrKXzGwW4vo+BayEE7oqZ1WCA1iSpK56F0CyHXwB6PgdtMpmPeduozvXuRjGfZyH2y99YfZsy1UNtjoVeZ7oerFkRP3r1D3e1E+Y9aWCY6Z7tGcbXkn8vrDGEkOaMaF3j1wF7UIJI4s3NPIfTwyXZdflP5o15tiSQTqHh4z5pcUtNr7XQcepHbutc6mwrWSKjTPY8lySuwFAVl+gR5XOHochnI9OSu6nz+2Cc1t+ZiXzXTPU04h1388cmVaYBQTq2qVJ5V5ul450Cxexzx3BsV2XnVtJxc4bGO3g7rxPub3PHqI5tq0Kf4WqPnat0mtOzWpt3YfzSBl4YFUx2xy5WytcBLn6HvRjHOHkYJW6+/ZVPqkR51HuP+5YCBDwNByF8a5OJt/rY7er/+4/tP9t/tv/8ic2Pn/9et+rfnz8ejGydEoWHFOw+3pXaA/OpyOKEEDPFcr4/nl5RfzAA5fZADG8nbIQ/n19Pf3IF1594Ye6EbfDj3xfX0w+u4PqBFu5O2AV/XS/wF1vwF1q4O2EX/P0Gf7MFf6OFuxMaEMCr2IILLdyd0ADnJmQBFlsApUrshNt/dhaQennj+tb1vv9o16CPxmH2eZWRtip0wDn/x5t5rJuJ4H1lFxZsYgN44/oAeqF8NApTzytT2goom0MDwEwE76u6sGIT68Mb14fUe/x8/tF+DvloDGaeVylpEKGfzghCvF0TvK/owpJNvM7P72oeeOP6kHp/XJM/GoGZ51VKGlLoj3+HAuaEEDMRWkfMhUF+9u5eMw+8cX0QvSM+2n+GfDQCE88rW1oVTLPMwpo0iJkIrVNzYc0mVoc3rg+p9583+GfIRyMw8bxqSUMK/RspHgitU3NhzSZWhzeuD6IXykejg+/8MGwOEppmqrmwpq3VgUizfUgqIDo/Yjano2kmAz/77cQQsu2Qj/aFCpRL5u9Hig/l+4G/v9r5q31epyG4eGddmgmQca6swBuJ3aPAP6/SEACkqULwMRbhz+Mo8Nf15p8IIW1O/HGwAT9e4OUKIm1I/EpLDQfBBx4PSBH4dg+RNiT+89+vL8UWGZHm+QEibUw/+ckA3ORoMfGjzemP/AQD1CXhtADKRXJccIjXsiz/QwVUK4sfpx61Kf/5auefr3auAEj7GESv/HBKjIgL/8riYdLuhzgl7UuXOWfrtzzISCpEDFjax3g8lM+LNAwPZBDalunnXCWsTrCBgCFv8fw9PttmqN4l5nyln+PPluBITKTp3fl7PCCWhCA90TYbas4CaK6DJV5+JQQ/X31riDQeSNO789d4QCwJQTqNgg4//h1e5ApWb5nn3xqr900qKoQ0iyQ5tswrJAdiSQjaSXJkOP4cXqAWVm85Bdnzbw3V+8eLdJUQaRYp0GyZVwQaxJIQtFOgsWGmilRIMfnz+bcG6CW0gEtf5hVwibAkBvEEl1youYIFcgxfP59/JbDe/3r2rS8g0izSFzsyPQUZwJIg9NMXMxnyD0Zccr+4Weju2PT4Z7fjr92OH5sdfx57HX8c+xrVGv//h10dAEVYSUYOAAAATU0AKgAAAAgAAAAAAAA=" vertex="1" parent="1">
          <mxGeometry x="161.85" y="70" width="556.3" height="600" as="geometry" />
        </mxCell>
        <mxCell id="uIATgTCMKuDsSCNxfTma-3" value="" style="rounded=0;whiteSpace=wrap;html=1;" vertex="1" parent="1">
          <mxGeometry x="80" y="690" width="720" height="400" as="geometry" />
        </mxCell>
        <mxCell id="uIATgTCMKuDsSCNxfTma-4" value="" style="rounded=0;whiteSpace=wrap;html=1;" vertex="1" parent="1">
          <mxGeometry width="850" height="50" as="geometry" />
        </mxCell>
        <mxCell id="uIATgTCMKuDsSCNxfTma-5" value="" style="shape=image;verticalLabelPosition=bottom;verticalAlign=top;imageAspect=0;aspect=fixed;image=data:image/webp,UklGRnY1AABXRUJQVlA4WAoAAAA4AAAA7gIAKQMASUNDUEgMAAAAAAxITGlubwIQAABtbnRyUkdCIFhZWiAHzgACAAkABgAxAABhY3NwTVNGVAAAAABJRUMgc1JHQgAAAAAAAAAAAAAAAAAA9tYAAQAAAADTLUhQICAAAAAAAAAAAAAAAAAAAAAAAAAAAAAAAAAAAAAAAAAAAAAAAAAAAAAAAAAAAAAAABFjcHJ0AAABUAAAADNkZXNjAAABhAAAAGx3dHB0AAAB8AAAABRia3B0AAACBAAAABRyWFlaAAACGAAAABRnWFlaAAACLAAAABRiWFlaAAACQAAAABRkbW5kAAACVAAAAHBkbWRkAAACxAAAAIh2dWVkAAADTAAAAIZ2aWV3AAAD1AAAACRsdW1pAAAD+AAAABRtZWFzAAAEDAAAACR0ZWNoAAAEMAAAAAxyVFJDAAAEPAAACAxnVFJDAAAEPAAACAxiVFJDAAAEPAAACAx0ZXh0AAAAAENvcHlyaWdodCAoYykgMTk5OCBIZXdsZXR0LVBhY2thcmQgQ29tcGFueQAAZGVzYwAAAAAAAAASc1JHQiBJRUM2MTk2Ni0yLjEAAAAAAAAAAAAAABJzUkdCIElFQzYxOTY2LTIuMQAAAAAAAAAAAAAAAAAAAAAAAAAAAAAAAAAAAAAAAAAAAAAAAAAAAAAAAAAAAAAAAAAAWFlaIAAAAAAAAPNRAAEAAAABFsxYWVogAAAAAAAAAAAAAAAAAAAAAFhZWiAAAAAAAABvogAAOPUAAAOQWFlaIAAAAAAAAGKZAAC3hQAAGNpYWVogAAAAAAAAJKAAAA+EAAC2z2Rlc2MAAAAAAAAAFklFQyBodHRwOi8vd3d3LmllYy5jaAAAAAAAAAAAAAAAFklFQyBodHRwOi8vd3d3LmllYy5jaAAAAAAAAAAAAAAAAAAAAAAAAAAAAAAAAAAAAAAAAAAAAAAAAAAAAAAAAAAAAABkZXNjAAAAAAAAAC5JRUMgNjE5NjYtMi4xIERlZmF1bHQgUkdCIGNvbG91ciBzcGFjZSAtIHNSR0IAAAAAAAAAAAAAAC5JRUMgNjE5NjYtMi4xIERlZmF1bHQgUkdCIGNvbG91ciBzcGFjZSAtIHNSR0IAAAAAAAAAAAAAAAAAAAAAAAAAAAAAZGVzYwAAAAAAAAAsUmVmZXJlbmNlIFZpZXdpbmcgQ29uZGl0aW9uIGluIElFQzYxOTY2LTIuMQAAAAAAAAAAAAAALFJlZmVyZW5jZSBWaWV3aW5nIENvbmRpdGlvbiBpbiBJRUM2MTk2Ni0yLjEAAAAAAAAAAAAAAAAAAAAAAAAAAAAAAAAAAHZpZXcAAAAAABOk/gAUXy4AEM8UAAPtzAAEEwsAA1yeAAAAAVhZWiAAAAAAAEwJVgBQAAAAVx/nbWVhcwAAAAAAAAABAAAAAAAAAAAAAAAAAAAAAAAAAo8AAAACc2lnIAAAAABDUlQgY3VydgAAAAAAAAQAAAAABQAKAA8AFAAZAB4AIwAoAC0AMgA3ADsAQABFAEoATwBUAFkAXgBjAGgAbQByAHcAfACBAIYAiwCQAJUAmgCfAKQAqQCuALIAtwC8AMEAxgDLANAA1QDbAOAA5QDrAPAA9gD7AQEBBwENARMBGQEfASUBKwEyATgBPgFFAUwBUgFZAWABZwFuAXUBfAGDAYsBkgGaAaEBqQGxAbkBwQHJAdEB2QHhAekB8gH6AgMCDAIUAh0CJgIvAjgCQQJLAlQCXQJnAnECegKEAo4CmAKiAqwCtgLBAssC1QLgAusC9QMAAwsDFgMhAy0DOANDA08DWgNmA3IDfgOKA5YDogOuA7oDxwPTA+AD7AP5BAYEEwQgBC0EOwRIBFUEYwRxBH4EjASaBKgEtgTEBNME4QTwBP4FDQUcBSsFOgVJBVgFZwV3BYYFlgWmBbUFxQXVBeUF9gYGBhYGJwY3BkgGWQZqBnsGjAadBq8GwAbRBuMG9QcHBxkHKwc9B08HYQd0B4YHmQesB78H0gflB/gICwgfCDIIRghaCG4IggiWCKoIvgjSCOcI+wkQCSUJOglPCWQJeQmPCaQJugnPCeUJ+woRCicKPQpUCmoKgQqYCq4KxQrcCvMLCwsiCzkLUQtpC4ALmAuwC8gL4Qv5DBIMKgxDDFwMdQyODKcMwAzZDPMNDQ0mDUANWg10DY4NqQ3DDd4N+A4TDi4OSQ5kDn8Omw62DtIO7g8JDyUPQQ9eD3oPlg+zD88P7BAJECYQQxBhEH4QmxC5ENcQ9RETETERTxFtEYwRqhHJEegSBxImEkUSZBKEEqMSwxLjEwMTIxNDE2MTgxOkE8UT5RQGFCcUSRRqFIsUrRTOFPAVEhU0FVYVeBWbFb0V4BYDFiYWSRZsFo8WshbWFvoXHRdBF2UXiReuF9IX9xgbGEAYZRiKGK8Y1Rj6GSAZRRlrGZEZtxndGgQaKhpRGncanhrFGuwbFBs7G2MbihuyG9ocAhwqHFIcexyjHMwc9R0eHUcdcB2ZHcMd7B4WHkAeah6UHr4e6R8THz4faR+UH78f6iAVIEEgbCCYIMQg8CEcIUghdSGhIc4h+yInIlUigiKvIt0jCiM4I2YjlCPCI/AkHyRNJHwkqyTaJQklOCVoJZclxyX3JicmVyaHJrcm6CcYJ0kneierJ9woDSg/KHEooijUKQYpOClrKZ0p0CoCKjUqaCqbKs8rAis2K2krnSvRLAUsOSxuLKIs1y0MLUEtdi2rLeEuFi5MLoIuty7uLyQvWi+RL8cv/jA1MGwwpDDbMRIxSjGCMbox8jIqMmMymzLUMw0zRjN/M7gz8TQrNGU0njTYNRM1TTWHNcI1/TY3NnI2rjbpNyQ3YDecN9c4FDhQOIw4yDkFOUI5fzm8Ofk6Njp0OrI67zstO2s7qjvoPCc8ZTykPOM9Ij1hPaE94D4gPmA+oD7gPyE/YT+iP+JAI0BkQKZA50EpQWpBrEHuQjBCckK1QvdDOkN9Q8BEA0RHRIpEzkUSRVVFmkXeRiJGZ0arRvBHNUd7R8BIBUhLSJFI10kdSWNJqUnwSjdKfUrESwxLU0uaS+JMKkxyTLpNAk1KTZNN3E4lTm5Ot08AT0lPk0/dUCdQcVC7UQZRUFGbUeZSMVJ8UsdTE1NfU6pT9lRCVI9U21UoVXVVwlYPVlxWqVb3V0RXklfgWC9YfVjLWRpZaVm4WgdaVlqmWvVbRVuVW+VcNVyGXNZdJ114XcleGl5sXr1fD19hX7NgBWBXYKpg/GFPYaJh9WJJYpxi8GNDY5dj62RAZJRk6WU9ZZJl52Y9ZpJm6Gc9Z5Nn6Wg/aJZo7GlDaZpp8WpIap9q92tPa6dr/2xXbK9tCG1gbbluEm5rbsRvHm94b9FwK3CGcOBxOnGVcfByS3KmcwFzXXO4dBR0cHTMdSh1hXXhdj52m3b4d1Z3s3gReG54zHkqeYl553pGeqV7BHtje8J8IXyBfOF9QX2hfgF+Yn7CfyN/hH/lgEeAqIEKgWuBzYIwgpKC9INXg7qEHYSAhOOFR4Wrhg6GcobXhzuHn4gEiGmIzokziZmJ/opkisqLMIuWi/yMY4zKjTGNmI3/jmaOzo82j56QBpBukNaRP5GokhGSepLjk02TtpQglIqU9JVflcmWNJaflwqXdZfgmEyYuJkkmZCZ/JpomtWbQpuvnByciZz3nWSd0p5Anq6fHZ+Ln/qgaaDYoUehtqImopajBqN2o+akVqTHpTilqaYapoum/adup+CoUqjEqTepqaocqo+rAqt1q+msXKzQrUStuK4trqGvFq+LsACwdbDqsWCx1rJLssKzOLOutCW0nLUTtYq2AbZ5tvC3aLfguFm40blKucK6O7q1uy67p7whvJu9Fb2Pvgq+hL7/v3q/9cBwwOzBZ8Hjwl/C28NYw9TEUcTOxUvFyMZGxsPHQce/yD3IvMk6ybnKOMq3yzbLtsw1zLXNNc21zjbOts83z7jQOdC60TzRvtI/0sHTRNPG1EnUy9VO1dHWVdbY11zX4Nhk2OjZbNnx2nba+9uA3AXcit0Q3ZbeHN6i3ynfr+A24L3hROHM4lPi2+Nj4+vkc+T85YTmDeaW5x/nqegy6LzpRunQ6lvq5etw6/vshu0R7ZzuKO6070DvzPBY8OXxcvH/8ozzGfOn9DT0wvVQ9d72bfb794r4Gfio+Tj5x/pX+uf7d/wH/Jj9Kf26/kv+3P9t//9WUDhM8SgAAC/uQsoQ3zCm8z89Ctu2bVPZO2kD8A/EA+HAWHwoGoaCIxEIJBwfHwPBgnEgPI6Dto0EKeYPe2Z37x9BRExAq6/7Q+UJekdn1x15snjql5QrG10qhCtdHlhcHE/KXTLKebDcS8ar0soLjHtGKzefm1+Y3Sq3F86NovCQzObIh519CwBTR5JtW2ZSTGjaRTOApmn8/z9amRW2QRISc861IvoPC5KtqtEBFkXExLiK917efEmSJEmRJLzhief/H4XdjnSKiqGM6L8kSHLjhpm87qxB+AIpAqT4Ona7+v/+Y/vP9p/tP9t/tv/sbGhrw5fy1m7vfV3I9fqseglO7WmYM/frqarB7Ga41K+XqgW9j2F/uQxR2e5h+HaNU8Xu4qVtvmDvlgYFo/ctVL7mqLBtXfs1S9U9u9N5zVRB7Veka65qu9VRpWu6Smqrmu8COfvc8ePy3CA3u7muskl9hQuOasyX0DQ+li+VmSM26C5IqvNdK38jJu45k3SkX7C047qc+C157mAMvkIX3qI67yWsInM8CU+r8CBW4FnzWnUBVE1xe+mJ4Y0bRJW5vfRgK2/cYCrH7CVGhXboSZGkUmL4plIplfFOvl/sMkcZL1Ef/ZMXYOtCuv0CnsOJIirH4q92tMup3+b89MlrZbvgbFV8tLMdmwWU5i43q/OMFmeBpgs0Z7kuy1vX+IbTwkU7jhccYe0f/ZhmzZ97mxlovJAS7p/ska6XmfFvUm2yJ+rZh+EUkqmKPb/YuKRRsjCcEwjMw6BFYVj36B+2HoVkMoMoC8NsK4kDXW/cFIPSgcsrFN1fir6ycUuSAyrzqBjtkpaXwL1L47qEZZkhucZxMUGJFYTbW/lLPkphiifTf3/wCXIi+av+yj64BFE5hXc2Q9GVbGw+QVB+/LtQGAVB+WnvaP08xeXFQuvPB1PRDeeRWHj7u35pMQXQX0Gx6reTUgCehxdDmVFiK9uReUi6+MoTSEgBqJeXAr8ezQPq1XVMvBLMnPJvtDj2vphIZ7CYROUw+gd7i+jOLOdtcRFeSvUtONkINa28J36HyscEzJmE4lr5l3Tfcmt1Qv/A6zgtt1YFFICFeQ1o+12dIfz2CfQaV6fpk9/MLRiiacrabyWSvomUlZJDsIYjNUqxvE4dO3z1afmjbXB5vdHbteVgJhoh5DDzEjD2V3gTaw1T02n4UDR9YXdYw2UxzX3rBubdTvNiNikJ1e6tDH6DU9aH0qDVEyY5xYG6vllB4GopfKlYygVWZa+WX4uarviM0Qq0w+J/xSwigItNmUVkhCAcqn+4SFF1Ad7b1LqOcRqUeI/U83391HsMl7M/oEclvWrrClyW1WHmwjn1fBsm53/AzAXVZ6IpHsvZU7WgCH8JE45TogpXD0t+TBvBeVx4uwjSJZsANSassq1W+hKOUyVN95N2BrlQMjQ7L9pU0autJ3/h8So3HZtwKhpcLupUVmsVCGmKzTszkjSkL+Hs0tFgoVK59ZLNLuEXmOnrnM3I5q+8DoXWVc1KqQ52B1hXtwsVgCqCtpZRPlWUj0WjiuskstVNYF2pz3UMefFJMKy3bZHzORwCFVDrLulAE49lL2bqIh8rMlOX65JOIKqSqbtZIwp/LdNZqcslH+vwFyd1g0Hs5S+Ti5MaxMnVHM78g4/aAuFdb1QdYJzaY6PqCkYUb5fuoKFIajA5521CD6rX92zWTK5YTeUfX1eDErTmsS/26Qwn54eDy0oX3mkHsi3n/BXMLFTq1SXRSbzuIza2pauqoKgA3O5ki8oyDezu5NjdQrMzsytjswg1UTCrY1NnbozKB8SDy5WT781O9CEVsoIzSyMdG+63hcVaH0IuhStiDBCpCkEQDa/89qDhBdlfZSwUXu7381JqXCD7a6D0MyWSnmglgFKaiOmxCZCByiPYtPrjqQg8P06ReM/ItcV+l2mQxTPkolxHLnWP3BWykk2P+TX9j7tG1ONyvJfYplUJaYdjW+iTtr3mVn1vW2w0uDt5CrxHuRwRdWBNIV6izONo849kXPeTz0uEeZxulVnnkth5Xjz9B71CIWSPSyQvHPKxFufHxE5tzHC22QMTLVJ4Eebsm29JlA52n5YiJe8e4lEZeZoqoE42fG/uBc2Ybradsp5sIIx8Bh5iKTL3JhKQyY+Vj1WXkQO3jl+ZPmwQxGsJTsqTkXlbkNCGBTiZr2GU2CYw+HO8UTDYtRsFBwE1hAMwjBKbBQTEth08cWLik4cNuODVNs/ppKgEuCIgBApiHhPD2bS49KySgTYNPAkX55xhZVgXRlxilptwkM2LNr5Iz92LKwx2pQ1SYufSydNVhbxKuQqInUvr9enIq2xF2Ca49LCaLG5jpEH1WNzIuDSUWizSnypszosiSmuow6KVUEBUXqLx2s5Ib6UViITeKbj0CipbfGwVpBVULVpG45FGiTXIrEt2YeBFwyXyzZU3C7p6a/YQdyvTcplSby4nIRRS0N6YdZL7h702S/fYbKSwDuJIKolYUw8ppSohJeBHZi/taUmjqfiLWgQphUWWZ3v9wnbymei5VO/Kzt9PPulJYp1uQt9PPg+CpLtehrB/sj8wFHFE4YUw/0oM0gVd4m+eKIaWkqQOTTtXik2TkFEESaqXbwxdV0qjF2mjrJcSw2ntA7njb7WFLoVKnBtkvZRwjulcTPXrKLmSB7Mz1ttXeGpGjehj2TtbHM4nSfR2ev2467bZkhD6NVCehi7WLUPtx0R1aQA7yVP51HYLtV+j2ZbgjjGgCZWQLbsgVPhdn6p93ieCOglBuEiyBFA0ODjxb2nRrLVtFxIyCpcLjrpK4k4eK3lqf5/oQnmVak65J4/NDjeNC693LVZBnXwnJ0T5hjS9oMh9Fio4mrZgDFXiyWOTWXk7eY2IMnIio3d29Tdp+hDLZ/XbZJmZ+WUSNlausHm5fc60wjB2UJKRr385a6hbSIeI9gS1NGUK2MyQzHeGrgUn6un3MHhJza73dYmDpdxMQVPymaDzLUt6rHQ8wg63txXJupjDKgMveAssIUjPAw/jG4p1IYfV3MAUICCZrDXaYZX6RLAuY/Sg8IsF91GSzbpsAN7WYZD0R+3vIvDoHVyDztuSL3eruSk1HEct+akiaN6WgBHVmMlugayP+RH3oU2QEoB3Q60eUXV9hKJCQbYyx5Avuqioqhlw9Tibt10O4aJZyup83YJCGKQXLpIiroLjPWpsFaDsSrTojsLavCeNq+Mh0iFZVD2m6vrkLUDzZSSLiLI1/POiemh81UOu6I7Udhr0oJCQ/r1cUfWIRHrELHgU/eTSlaAAixKEqiVBUGb+RgTmW6BJZM+3s4CL4nFz8JA4uQIVXuiW7Jqj9vBqOmfB4OTKFNVQXnP9akHXVNvJFPVVGApLJ5ABlRpVFZDIsSiz2U5UNEpiruDoCw0lZFkmGowj6ntNuKPKs0OWKPy47iKiLkgDMpOfcMgKZbo5F1EdtzTVlie6G9NwJjr7IR6cTvKcxVvdEOgN3GkBTWtp4Zxq/EWzCo+1jO3DDjGDXyyD3/mSJGL70OMN5qoWwp88ZWmOLS/12pDc6fCYL/1gtBYYyiTjKDISY0qrgO0jzjH+ol8lEBHDLhl7DlnHDx4dh8CRfwA6HBKDeWOIPiR7aKnusxm5kmv/hCdfFI3Vb2f6aFuOHtMrwufatJ0gXy8u8YUJZnXaD5Wvl+OGqkaafgL/cWTKWDFuaG/McpSfRwKwckN+ROh/Y5aoVR3J2ZIhxd+9MavUfewh5CedFlZipkWHzIjqX0lO1VEVV7sxiznOhMCrJOeKaH2Trm6pOg3IR16Kq928MIvV9TUfV4yr/rk02tpUU2MDaL/2EeNqmiBp3Nc4NfOS1C+81fee7LU+lUemlo+H/FT+4AlHCkFIMD3QkM4kS9DtbRzpfEroh5uNzcrLNkrtH53v9yFKT14nU0HoN1j7EdYO8hMEOSVQu0J7wBbKAwF2j/F4+omf54wtGXp2eEN3z4hSjYbAswRTgT9/dGS8razsdwwFf39HTwFPAAP8uEOKsI/dFIrQy13iRXP/je0REWd7Y26PJUdVnt4wC8ZWgn54j/kdYGNUo8g9QVQpp5R9oPTzzU9fnVHlBXzevoSq9gkOsxRDkY5wvf5txra8IlvWUmLwQ2psbc0ij+X21m0+/t8VnFzdu6ddN8J4gkwZDZ6ag3u1q2pmmHuCuv/0f+cxc7mcOLI8UBNmbMv93Fq3yFsU+iFuEu/5R/7TY6ZhpvonQSScMj6WDvNeiutOfhc/D3c5HH8BmVWfPlwT/98N3Ij2os7LiQtZg8r7XdGq4b62MwUduys8eXVivzFnBvY/4BEe6zlZ8XxQT4jQPjzjEB8qct7YT4ItwO3zwoPXlFh1/GYhdWL/0wQoExOf2zMWKV5qLMOlLdHWu/0t26ZQdFFnTDKZjAo38tJnA75C58eIez1/0GWHQuy/8B4OfG+2a+xjLW9H/gDf7gkKhXaPHmmt5HBa9j5wHILaWSf0XVYwOnFjuL0H4IlXmps2qbOV+oOjJuIae44H9RisIxZaaHydmKwEy0/+VWgI6Y9oaI39YzwoDaeJoaGF6hG3nnJy8jAuY46yBwxRcp3nJkw6cd59ysOGHi8i2E7XedpwkvrPr7t0nslLUjhvP/ZF06bZtxQ68lIEEpr3BH3mMq3tlRnn/ae8+IinktLS1RXSfeZHPTzOG5B7R1azzFtCLTlQLhL5Rw2n1V5+TM/AJZwhu+tigxWGf9kWCAn6+5RSs78U8qcdPe0pKCju11AzNC0II5hD+GqdggVzpvJkWp2dFAVnUFYXz+G6XQPLKkZ3lFYcMtGG6GL9l2Bo2SviLC0DmQ0tIzCPw3rcyyo4DyexGLCGcKZWUVPtpIBTAhNO/hkRxe8yifBawcZYNJafURwNrpmM7nJQndTBoUwYbgXT6AdJUTaMo80S5Io476Lzupih/bQ4Zj+RIQyfBUQ0hEmDb2wkqQTg8kL4UhUQX8taa9MJa56XAf1JKPRODRTf4VuPugSJHMdzUhPDVjzrDuJTm9iNpqJjiBS883xFrUav7mZB8WMv5nxcPM1zNydg+3E8Mdfy1BSU53qHzRZS5SKE11JMQVvN02SZ50jahZsQhtGJqaGpxdtiMgC0btiRPzU5HlAV/AuXIE1WjWY1IV0I2LyiTMrpnCa6Jzkb/TPuDKHao6+eKS3D1NCTo2uhze94ag87Ck6ojvgrQ0XOieh5urgg3PG2s/OpGpGyF86E6ZDo8ViqFr3XUrKdKq+Cw7NDezEDjfOGZZqMtu4o0CXVdUIhjzklwqoIi5V4NIae9UrJEjkLHsLtvCrC3jgNEkPPuqFkirrRQ//PD67wOZou2nnXSzSZonPRPV0CIfo+dx0CtGqUjtJ7oqkVEAT4roYwvuEJI75ZFdQQ6As80dQdm341E1vMAhfzCBd6fYJ7f0TC1aJFTiejRyKOm6Lv36+wawMv+qpJM5phXkWDgRaphr3a52myBBoLAZ0wbjeclghDmFMG8wzOdMkBOMiylzTQ1WEQ++PFJApocvGJ+35icQgkhXr702ltjf2fXhH4/Pa33wmXsMBjIRMSd8lk1ZX9JCBGR56VAJGLE4hrl0wr0NUrxJmC13XqNndIP1RVAEgsVFqOkJr2jtw7e+5UWIEYSI/hZmjKkrPCg+50IM7dO2msOUIO1OKV0qgURWUDrqrAkbIeQCfKBB3o9Psc0GOhPRcBK29X0+R08kXeYNO5Xr1/O02nZAm9AuxFCBopp8TR2T+rFtpNs7t50XAiV1WnrI2oAfc+dOKE95qVFDnR8LCsMb7wlLzMWEKRxzHPlGe8TjO7qVLZEdWSKaiPZfVuqdZlO9jyHhgzbjunxSEGdjM14W5gczpibMKe5PoZr9jqn/QgyppzDclVkC9SUAghVVVas8tygxMHCU4/b+bdyUbmU3yuye2KhGzxkHOfDgArRhce0RUw7WQ6hnxdEpgfnZou2PB0bOnEpswscKnGPSjIidz10H/YAoixRZpPi5qRS2vazP6AdwZ7AZJc/0jdFzWKTIRQ+6FnrGI79NME7X84aKDlQdpjrF7TiHhVOk5LJjfXfgv9VStZiL3TV0c/cTXopzkdV3fH7JtaHSDdnqAFCNkC8qcNj4OiYh9tb9FU+I54jWZCEfls0am7SXMB9actcBEucuDIIM6mA4VukHcMkIdYJnyrEkqIFbAssepQoTs9sGTcBhy9pW51gpvbqIezoCwMujN1e2bM6/TqaUjVWZ5hQl/0odK1Lt2TDkUOgMi+NxjsZCmfMsC4LrsVrQPOzMROGIPCbNMGBYiwF30wKxxWmgyWltYI7umd2/MGEIUiRCr2zKiKRG9YCP6BYiETGFGWBFt+QCEt8dl48zoViECexLuCQyEJJxVic5rk+l0UYrswIMygHpgF2O8flIWwBCVi1+PDPFmBQmL/8M2fhhFikk0iKvI3F3IDpBVlihjZB5mPRrj9+kG5oMSxZ3jWUomGGc5fyiZYnyScNDxGLhmExwWFGn6vwr6GaKkpXdQQrrM8PEOcRMHQF4mw9IVKbe7i4G22lEovpFEvU4/+Ne0sXntiDU7Y5J+H416SlodpxJ30uPHVEzaoi0Y4tBcBHup++HCC8SJdxM0+gJ11ZQQi45JhSVKY7WEZHauFn/MjxY+iHucqJhx4oQEZFbWzGUjUaEcnuprzI4WPkaEyGv5iDU7g0PeVEAN0hgOdSJN+JPv5/0UNRqUSicwt6DZ/ps+1wkziwerPYqt+NGuLSpQ1JaCK1yNtl4o6KfrTb+L+eXDIvEFGIHn5QK8WfhLlMt8lu1BjQ14jgpUBez3ReJHwXbt8vhzOSf+rJ3Ng4KM8quKwx4mM4/7Oz1vipGd/Yw6Q1hq/rhR6OAHtppMnpqy6izcoE0Fu94UizSKgnd+4VHPiupk0rjYFCAhgFg87noD2kSM2jK5Eac4niOC9nWFrR5n1DA5POINmmG/u4MCAum5MEpH/ZNs5sbHGHFSgQHI6LYlos36l89mpVKM4ucxBXAcC6fZpA6bjGcIgTi6tWFUufQE3AhfYZT9UBfqcwSdTnTgY/FDMRZj0Mz0/lX4EPK1ZuCWUcVrKYe5iD0TZwH6vhiq+uqo7YyIdFF5gYf7vNd7SF3Vw6OF5i67mY7wVyENAD40kM0oc6AuyjzLhmzRi4VZVNk7BwSddkX2U8V/FUdud+XZV+clXFNArso/y5h2P7I6cLdhxIgERd6jIwbYyXLRK0VsMHEJ2A5JyE8DetMkjdHugqAOk0khl51K+xbH1T+poIRXsu1aEHFntJXypVDoaVIRbSBfVoS4xhYVLSbNQ0zPUU9/0LlpD8WsUurdYfpLVxJH7C2A+SVcgfRf7bJYxwOdvxSVtCTREP0N3pITBleFWECuzaGKHzt+iZ0uy2kYacWEF2C9bCdztLKp3XaKzEDJept0utIXVFBRS2ljdwNas21fITBr6t8SAp1klgbY9HZhcbIdqP8+YIY2ehRuRoX+Lu5rH0qwST9qeBQFfsKgH9lSDakEhJmx0sOSf5nE0Isa+lsnqYa0BdWRjFsI8M+x6CgtIWJKAyuV8HjxwC1o8kjS2/YlEhDWom/owTTP4WsR5IuY/e+BCxgX6FP1p43xmn1TCj6tnpaooeHCuE7+jhgmPlJoVaHEzgGAGXLTezB3DZT++R10ACqfRn7ONRkpQz0tw4wU1e+mIYtGuw5PWoT9nm45TFKaTEiK69GdAmiqFKkiLVnzBQkXGAvWOl9vICpAcRWcoAHvoevolFwLKGKAnhbEF7hlN0RmyHZRHTb/kgkVJvE3EJAIFtkrSGVIV1KtqIz+rD4XlrL1gbnWz5lJD1BlKkPi5if5c+hpC4q1ezbGQsPdnnyEPKPLmMZWNQ7nHRtUWRyj/JMyPKncwlEhFfwKqsPAtgdCHdIEQu+tgNlTysy2zCLf0t0gfdHBQqbSotbqj+JNfWIjGd5MwxISQ8bc98rd3d0cEoD8xeEd3kwjk8LUC/iMZ++tMxMj+11Rk8CHSUHVFoeu8jEAfXhwPJEaTyC/4LGKTu1BrCl37dcTiJ1dpfPnHnrBxYpO78OTlzKfxbRQc3Qq99rer1JcEZbGFmukx6YL+hYIzktGtZujZlSG4qF+u95TgP8LyRIDutyReHDdB0ndU5BQdkEhtXICh4Ynnbq9T6nMtK7ieiWltBmBWEp6IGF66XaX+ukiLZeUGUmufHoG+I/b5jU+iPgfWsNZ1T2pP/yW4p2T6ld+Ir22EQ7WeKTCE6go5ijf76XYSf2VYTIwkRUG3ZqHShPUFlkqzWzlLffbaqHhbBEgsINOU9XzXOXnnTPwrXSeZt0XbelRCdVW0nJOEKNr9dW2QHpQhJLlgVqR2KG1CcJJUnhq1abRTpxOe9/tzWYRPwYPIEOkp2tGj8YwjmhvwCNU1zGHg7QbpMOlNnqCHXsZS3aFCaI+BDinuztAchuMWsVZD0k1AI5FWt0jK515fWvCAvff1STtJpsw6G5pY2yd+a0BX+Cvp9nbrNK17H5EE2SdVVSEBtikn+Jd7Yj/iLhomc6FYlE+9NIfkb4DaWNCQMKILZlcSFs42oqNxDWkjIpAxUM0tGpSFFVkcFS3jz/Tu980e9SmydYJnC9amnOB/4vddDEWDRpbKw0Hbo3CAJyL8ezOit6UANmQMvqkeww9rffhdWUvGg8+X95cRdCthahrokioK1INi2Eg5vV04YVo4xw7TYrCPxqgl7NO2EW/XjJ0HJiyn4uQ9ac4NI1IdmOIjk92yZ4XBzlh9cM17G/WvoCEegnD+VgAf8mG8j0j1AoTamP+FRHY7tht8O+IheXpODj5ieUiRB0rlawoZCkh7VMjwpvojM5WL5a0VALlhA0QbYcjZcXUc785U3zBcGzC34P1bJ0xhoBmsf0bGqFxIpT26/TsobuSjHajsnljrchcXthpmfAShiMkJDu7hKwnYflzi/njgQmJsBe/fKgcW1lY+WfJOnPcDST7ohzkwsLYqi8ZiMGPBm1WhfRTC5VVokNuc4vt/VdFQbtHIx9kbnEwdaAH78n0b3019coQ8m9JPPxxcu+XTimA6ZQRQPF20zPcGax+Qdsvhe/IL7iM9JFi6qXwtrCiQi8E2w/sQ88347smB+lMVGKd0LAAnnHFJ7yUFx/59H3Mp4wMnas2RcSRjty7E8v4otZQQvDUimYE8n64YB8Mpo2ZSIKvRg7FfiaLvlH81FJNiIOy/StAa5xD6UQOsW/CSnIkNLyXu65StqAHVzVyFl4jimQ8qnE+rOSxUt4qTf8FVcfvXAirHOdwsAe7RnShLDQNoPm3uoc5jCUgPv4yWIfIjgs5EGbXuCSBuwRAYUw/PexAhzjGPBjNy2BUIUCA8madSC02C0B3UqMIUdawB/jnLw8nxWAP8pId4QEpaA+LTO5EMPYeBrPtKZ6kW4zKg4VhcCdXteiiDPLwIabJl09o7braXqNvzCLJ5X6juItBfil4X6YU4+ILzLwcfeBlwbyu2oITH2BotYBZfhbkM+GeCSmJcTUBG466HlWRTkp6faRHubGck/KsPC15cCNKI7yC6qW0FIU5xfZXhshBUNSJJjZPjPqBeXd3vlyjCTDOk/kVRcPvMygWg01c61znRjPllqtgQJ95qySuwyMIxHyKZIgxUD7z8CiN7fy/XYjHo+qFAthw3lJlkEvdVEt1y0M046nAU5CGQjrUeVDMwjllEamfvwrSTMigZKaghMrjrWphWwI3QMkJoEwS2SFUAjfzEdfyMN8iVIY02VxSZPUOvC2n8TaiIzJ6iV4Vzwq/SJWZP0ktC91PuQRKzweq814Q3M+dHsfKy5+nl8DKKmnQLcvJi5E7Ui0Gc9sAN4mLkLk+XiblopkugsLNnxsQ6UM0rI8qg0vR8G1eB+LDdAxKFBpBPKZkYn/mUrpdIESHkVLoAZDW7XTAiSxk7NxMY6tHd/GE5lBtra2LiadIfnFkBeNYKj7U1O9ERuTl+NAeiU3mEFvLs41KNoJ7O1m2xIkOqPjPNRUNoKKPpqQQb8trc2uSiOTgTAMaKCQFY9b0MregnpDbkWUn6Bg9SJxQ9qOdNPJIlaqukXKCv8GgJWDd/KVmJ6SzQV3hQ1/z3ffwlyN0QtFM5kIcW1JsJbDRcPNimPZKG4l/N4JzxUsFWh/qkC8kcQOfqtrSI/SCDJAnVK7g9cydmYv87oQBq0KKB3C13RdbE/uesUlLejaJ53W2aYwVXO5WLppJOoPBqk2WEuJSmbWKfjT9B5Os4y+2GMTF5xoxZWgs38fV1rJTWsSzYBc5BPCvm9XGN+V7ehNsT0/rCFzSw2eXXBcfbgszf9ZS9GM843F9RzkouKtIWFIB0XkHK6egdQQMCXhVOkK9KXihA1K8rhE3bRnfXsP5R/82MuKNLvKKivcfD/pu4ux8Jg/fXg5wgcJ8Ofc/6B43ZReQ+IwUdD3pqVLNfFjaclFi5K3RQHsksaZVSqEQ4BAN3m4sVS4RQoFkf5F3Xsr7fBnyLgEPNtjhUe+bbGKJIt7Rw159r9Hr6dN4OGWUX0SpxSWHSEqEqwek5+57vp3+1gKn9lA+6U0lhWPMLjT1Dwd7pv+dW2DK9EanPWx1prAuhFCKiglqYW1Ic/L8Sv2UPZUMspVHzpnPIegs2MqN9eD72x/pJMap69DjcJuuZYhiyzlg7JCiok+yjiqcHeUekF5Sq9UDRg7AdZOzlKj1I5MAJScae2oA0ZbcIIyEUcmFhvO9sq+Sx+tNpxO3N3Iq0vd+X/eQzERcFjBJCIN4cbruElUk+IF2enYj2pNVAkjSSezZ9tBr6Bh3dCAiKVEPgS4+EbEsnsqJQ1mgfhCVeAmjaKgikGvqsJnX4JeJIm4GZG9JF5zb2X9OB3UHuF9p+kbRZIbBrEXonIwx689knoC8MO4pJ17cpZLZfJOw6GBdz2zYwiiaXK922Drqj+F1fsEhUL5nZuiiG6Hx6tDzhWigZnUewWwb9JLyYTidG+G7cPLm7hO2Cdira81BOmyVT+erJTzRQhSaalrxipro/girUhU0u0d/uEfRolpEG8twghSi0BIxsWHdHmVBhOfWmMbtjw4l5W3RqQfcNJ8/cywLuBnfdGxR/Q0919sife6RK2OxcGkZry++NnduKqqKat0ZKqkJPRYPJnyezXkAEfwoGd2Yph+rS2XyuaTyWzo0RiF3U4EPljeG0qFZpqbovioYCf0FmjZWP0VH7kY1Oq2qdk0ee7Zpk4JeVaDRiz55H4uIL1aw8CUFzctF9WfkBKOwy94VNC/bBQtHNFEEcAHIP0ciZwVUVE8pmbtFpEW9IZLz+k1E/7tMa2Qpjep6U31lKCsFZK1CKv2dPNXFayeG0mu1wSxNWUZW4GtGfRoCBDmNl0it0P8l7C5dBCyJSebwAq1FjtvwCNDFzjunrKl5oVWWqjKsrTvMS27lr8qXvhCzf40Dld8E6fRUtrJ3bcXBP91NW+SBQFu1NlFZtjsXQcPIy4qCuWk65OsWDh7obMZH8zbFRdQfSyxQbVQcY9YhhpFYi8hwORuqqJMTRDQcndZJQ2sFwsFKfAgo48LLRF12zFxZeRTPYJ7cjHysczNSneKx0kKm3waHW2Yd4hspmTkfxWAc7tZaORSnPXdU9QPQ3C32pU3kPWGmlNLu4BSzdV1oTAd93gBWWWrajoTCIwN+sbtpSa4mkEoE0fwYnpwLw0GemL89fXRb70Nfk+crCEUBuJCcfk77nI0CoBBgrD3YeDN5lveKyZxf96mEXXO8GnSnT0ilWIZF9a2kvIOAK3qoO452OjbTQIJ2MtyPhN5dA1EI5hOPU1cHMhXYcwnEKx8HMBfGUI9Kpv8H4Rg4Mj3VcuXyJK4zcMepldUuP5erYxI3DrF580CVp4ziXT7NTPs/FkKnyEUoTRUNCMgduhC41eOHl4K36KBcnCKjOg6TM5swdUI8f6ik/LqMrXmP5IB1uJveVZy/x174T46pWQtUjC2uaUkYhDaeMtkEztqUNoffz2Q8/OO7aniGXOuL11w2sBVMYyc0VTBITt8CcgJ5M2ZZz1oxt0SvMBKHBSUsTIys7XQ4ZVSlI8TGHxCikVlJ4FgDIBi+kisVnPj649RdEEAAj3+zsiFQlEgrAcRFJTDXpj1x09mJq1FPlIpSc6hbPxB81HzyHqqxNDtEGrMsogJOHlSVVgmq1WWAhASJLqq0UhYWyC571telnK/oAHqGUAuDgejxYr3TnKcoIOR0pBcDAbITKwX0VOIr0kmPCflX4CT3LnsmUN/yzzSEA5YaCfduTEBqiyEx6f3ldBTIROLESbkiyHDkFGFiUHPOtmxAsTuaBEMfUtVkYR+AdQcO+roqtsFY769y6EViHFmTWkfq9JIxj4xY3y8xlcifNuFSYXmSdFZH5lmihW5l1aJdn292qGZk17r+z7fcrrKXzGwW4vo+BayEE7oqZ1WCA1iSpK56F0CyHXwB6PgdtMpmPeduozvXuRjGfZyH2y99YfZsy1UNtjoVeZ7oerFkRP3r1D3e1E+Y9aWCY6Z7tGcbXkn8vrDGEkOaMaF3j1wF7UIJI4s3NPIfTwyXZdflP5o15tiSQTqHh4z5pcUtNr7XQcepHbutc6mwrWSKjTPY8lySuwFAVl+gR5XOHochnI9OSu6nz+2Cc1t+ZiXzXTPU04h1388cmVaYBQTq2qVJ5V5ul450Cxexzx3BsV2XnVtJxc4bGO3g7rxPub3PHqI5tq0Kf4WqPnat0mtOzWpt3YfzSBl4YFUx2xy5WytcBLn6HvRjHOHkYJW6+/ZVPqkR51HuP+5YCBDwNByF8a5OJt/rY7er/+4/tP9t/tv/8ic2Pn/9et+rfnz8ejGydEoWHFOw+3pXaA/OpyOKEEDPFcr4/nl5RfzAA5fZADG8nbIQ/n19Pf3IF1594Ye6EbfDj3xfX0w+u4PqBFu5O2AV/XS/wF1vwF1q4O2EX/P0Gf7MFf6OFuxMaEMCr2IILLdyd0ADnJmQBFlsApUrshNt/dhaQennj+tb1vv9o16CPxmH2eZWRtip0wDn/x5t5rJuJ4H1lFxZsYgN44/oAeqF8NApTzytT2goom0MDwEwE76u6sGIT68Mb14fUe/x8/tF+DvloDGaeVylpEKGfzghCvF0TvK/owpJNvM7P72oeeOP6kHp/XJM/GoGZ51VKGlLoj3+HAuaEEDMRWkfMhUF+9u5eMw+8cX0QvSM+2n+GfDQCE88rW1oVTLPMwpo0iJkIrVNzYc0mVoc3rg+p9583+GfIRyMw8bxqSUMK/RspHgitU3NhzSZWhzeuD6IXykejg+/8MGwOEppmqrmwpq3VgUizfUgqIDo/Yjano2kmAz/77cQQsu2Qj/aFCpRL5u9Hig/l+4G/v9r5q31epyG4eGddmgmQca6swBuJ3aPAP6/SEACkqULwMRbhz+Mo8Nf15p8IIW1O/HGwAT9e4OUKIm1I/EpLDQfBBx4PSBH4dg+RNiT+89+vL8UWGZHm+QEibUw/+ckA3ORoMfGjzemP/AQD1CXhtADKRXJccIjXsiz/QwVUK4sfpx61Kf/5auefr3auAEj7GESv/HBKjIgL/8riYdLuhzgl7UuXOWfrtzzISCpEDFjax3g8lM+LNAwPZBDalunnXCWsTrCBgCFv8fw9PttmqN4l5nyln+PPluBITKTp3fl7PCCWhCA90TYbas4CaK6DJV5+JQQ/X31riDQeSNO789d4QCwJQTqNgg4//h1e5ApWb5nn3xqr900qKoQ0iyQ5tswrJAdiSQjaSXJkOP4cXqAWVm85Bdnzbw3V+8eLdJUQaRYp0GyZVwQaxJIQtFOgsWGmilRIMfnz+bcG6CW0gEtf5hVwibAkBvEEl1youYIFcgxfP59/JbDe/3r2rS8g0izSFzsyPQUZwJIg9NMXMxnyD0Zccr+4Weju2PT4Z7fjr92OH5sdfx57HX8c+xrVGv//h10dAEVYSUYOAAAATU0AKgAAAAgAAAAAAAA=" vertex="1" parent="1">
          <mxGeometry width="46.36" height="50" as="geometry" />
        </mxCell>
        <mxCell id="uIATgTCMKuDsSCNxfTma-6" value="Our Games" style="rounded=1;html=1;shadow=0;dashed=0;whiteSpace=wrap;fontSize=10;fillColor=#666666;align=center;strokeColor=#4D4D4D;fontColor=#ffffff;" vertex="1" parent="1">
          <mxGeometry x="70" y="17" width="90" height="16.88" as="geometry" />
        </mxCell>
        <mxCell id="uIATgTCMKuDsSCNxfTma-10" value="Other" style="html=1;shadow=0;dashed=0;shape=mxgraph.bootstrap.rrect;rSize=5;strokeColor=none;strokeWidth=1;fillColor=#6C767D;fontColor=#ffffff;whiteSpace=wrap;align=right;verticalAlign=middle;fontStyle=0;fontSize=14;spacingRight=20;" vertex="1" parent="1">
          <mxGeometry x="170" y="17" width="100" height="17.06" as="geometry" />
        </mxCell>
        <mxCell id="uIATgTCMKuDsSCNxfTma-11" value="" style="shape=triangle;direction=south;fillColor=#ffffff;strokeColor=none;perimeter=none;" vertex="1" parent="uIATgTCMKuDsSCNxfTma-10">
          <mxGeometry x="1" y="0.5" width="10" height="5" relative="1" as="geometry">
            <mxPoint x="-17" y="-2.5" as="offset" />
          </mxGeometry>
        </mxCell>
        <mxCell id="uIATgTCMKuDsSCNxfTma-12" value="" style="shape=image;verticalLabelPosition=bottom;verticalAlign=top;imageAspect=0;aspect=fixed;image=data:image/png,iVBORw0KGgoAAAANSUhEUgAABHAAAAFgCAYAAADTmI7mAAAACXBIWXMAAA3XAAAN1wFCKJt4AAAT+0lEQVR4nO3dQYgk13kH8KmkbUUkWFESl4xgkQhCCUsu3tU4dlrIwQEhlIM8l8gnM1phCMHoJFZ2brkkuNlDMHswGC+DTzYYBl+EEDgQYRGj0a5vIhFCKFGwk+oEE9nCjn2oHINBeu2dNzXvX92/3/XrevXVe1XV038eTDeO4x7ALur7vvgCXC3X59VKpMPjsZtyfPM/rU3r13r+p76/Wtv1+W19/bXMX5n5KUt//6ZrfX9Bsl9r3QAAAAAAZQIcAAAAgHACHAAAAIBwAhwAAACAcAIcAAAAgHACHAAAAIBwAhwAAACAcIvWDQCQ6eigG0v1w+OxO69e2D5zv7/6vi/2v1quz6uVJrb9+ud+f8Kcef7g/dmBAwAAABBOgAMAAAAQToADAAAAEE6AAwAAABBOgAMAAAAQToADAAAAEE6AAwAAABCuG8exdQ8As9T3ffEFulquq8Y/PB67muOn7m+T2v43SZ//TfRfNnX/tbb9+uf+/ph7/7VaX/8m6evbev02Sb/+1vdf+vpBDTtwAAAAAMIJcAAAAADCCXAAAAAAwglwAAAAAMIJcAAAAADCCXAAAAAAwglwAAAAAMItWjcAwDSGYehK9b7vx1J9tVyfbUNwG44OuuL9eXg8Fu/vWp6PaU29ft5/0I7nD6ZjBw4AAABAOAEOAAAAQDgBDgAAAEA4AQ4AAABAOAEOAAAAQDgBDgAAAEA4AQ4AAABAuEXrBgBgFw3D0LXuocam/vu+H0v11XJ9tg3NzOHx2HT9rc+0jg664vy2Xn/YZp4/tpkdOAAAAADhBDgAAAAA4QQ4AAAAAOEEOAAAAADhBDgAAAAA4QQ4AAAAAOEEOAAAAADhFq0bANhWd9/R9vx934+l+lc/ta4a/4lvjF3VABNrPf+7bhiG4v1Re39++zNd8fhN9+euPx+b1D4/6dc/9f2ZrnZ9P/cPHy7Wp35+N9n193/69e/68wc17MABAAAACCfAAQAAAAgnwAEAAAAIJ8ABAAAACCfAAQAAAAgnwAEAAAAIJ8ABAAAACLdo3QDAtnrivsoBnuvGmsOHpyrP/6WxqxyhqdbzP/f5a23q9at+PrZc9fxvubnPT23/n5t4/Fqtz9/atl//tl8flNiBAwAAABBOgAMAAAAQToADAAAAEE6AAwAAABBOgAMAAAAQToADAAAAEE6AAwAAABBu0boBgG310g9bd1Dps91YKj/y9bE7r1ZOo/X8P9L29PGGYSjeP33fF++/bz22PtuGblP6/V+r9vnZ9vt/7vMz9fux9fy0Pn9r23792359UGIHDgAAAEA4AQ4AAABAOAEOAAAAQDgBDgAAAEA4AQ4AAABAOAEOAAAAQDgBDgAAAEC4ResGALbVmz+uO/7weOxqju/7fizVV8t1zfB7bx50xfFr+6/Vev6pMwxDcf6nvr93ff1rn59HzqaNWHOfn9r+p34+N32/7O19uHz8zNen1rZf/7ZfH5TYgQMAAAAQToADAAAAEE6AAwAAABBOgAMAAAAQToADAAAAEE6AAwAAABBOgAMAAAAQbtG6AQCmMQxDV6r3fT+W6qvl+mwbAgAATs0OHAAAAIBwAhwAAACAcAIcAAAAgHACHAAAAIBwAhwAAACAcAIcAAAAgHACHAAAAIBwi9YNwC47uXF5bN1Djf0rN7vWPQAAAOwCO3AAAAAAwglwAAAAAMIJcAAAAADCCXAAAAAAwglwAAAAAMIJcAAAAADCCXAAAAAAwi1aNwCc3mMf+nKx/sI7z5xTJwDw/44OurFUPzweu/Pq5b30fV/sb7Vcn1crW2kYhuL61s6/9Zk3zx+cnh04AAAAAOEEOAAAAADhBDgAAAAA4QQ4AAAAAOEEOAAAAADhBDgAAAAA4QQ4AAAAAOEWrRsATu8Xt14r1h+79OVi/YV3njnLdoDb0Pf9WKqvluuq8Q+Px65qALbaMAzF+2Pq+3Pbef6gHc8f28wOHAAAAIBwAhwAAACAcAIcAAAAgHACHAAAAIBwAhwAAACAcAIcAAAAgHACHAAAAIBwi9YNAKf3i1uvFevfeeAr59QJifq+H0v11XJ9Xq0A/JKjg674fjo8Hrua8b3/oB3PH0zHDhwAAACAcAIcAAAAgHACHAAAAIBwAhwAAACAcAIcAAAAgHACHAAAAIBwAhwAAACAcN04jq17gJ11cuPyrB/A/Ss3u9Y91Oj7vjj/q+X6vFqZpcPjsWr9zf+0atdnatu+/unzX2vb12+Tqdc3fX5b399zn5/0/tO1vv+gJTtwAAAAAMIJcAAAAADCCXAAAAAAwglwAAAAAMIJcAAAAADCCXAAAAAAwglwAAAAAMItWjcAnN7HXr9V/sBHy+VX3r10ds2wdQ6Px651D0CmYRiK74e+78dSfbVcn21DZ8z7D9rx/MH7swMHAAAAIJwABwAAACCcAAcAAAAgnAAHAAAAIJwABwAAACCcAAcAAAAgnAAHAAAAINyidQNAhe9XHv/gmXQxW8MwdK172GXmf7dZ/+1mfeuYv7K5z8/c+wfasQMHAAAAIJwABwAAACCcAAcAAAAgnAAHAAAAIJwABwAAACCcAAcAAAAgnAAHAAAAINxi0wdOblwez6ORudq/crNr3QO765UnL7VuwfsBAAA4Lzv9+9sOHAAAAIBwAhwAAACAcAIcAAAAgHACHAAAAIBwAhwAAACAcAIcAAAAgHACHAAAAIBwi5Mbl8eaAfb/9+ZZ9RLp5I7L5fqG+du/cnOn/08909r/p49XHX/yie+dUScAAACTq8ov9vb2Zv373A4cAAAAgHACHAAAAIBwAhwAAACAcAIcAAAAgHACHAAAAIBwAhwAAACAcAIcAAAAgHCLTR/44tN3Fuuf/tO/L9b3L37stho6b3f91m8X6/v33yzWT+64XKxf+v37iv+n/iO/c1fx+IsX7i3W7/zgB4v1//zR/xTrr77xVrGuv2n7+5u/+kCxfvL0rWJ979Kvl+sb7O99vHz+T3yvavxaz35+1fT8AHN17Xf/dtLxn/3vv550fAC207XrV1u3UPx9/ivozqSLU7IDBwAAACCcAAcAAAAgnAAHAAAAIJwABwAAACCcAAcAAAAgnAAHAAAAIJwABwAAACDconaAH/7XD4r1f/nXf649xaT+4L4/nHT8hx64v1h/9Y23qsa/eOHeYv2eu+8q1vXXur/f21DP9uLzLxfrjz6+LNaf/fyq6vybxgfYVo/+48PlD/ysXH7xk9+tGv/abz5XNT4A22nT74NNf/9fu371LNuZwlh5fFdzsB04AAAAAOEEOAAAAADhBDgAAAAA4QQ4AAAAAOEEOAAAAADhBDgAAAAA4QQ4AAAAAOEWrRvYdvfcfVex/tAD9xfrr77xVtX5L164t1jXX9nU/e3t/eT2GpqZF59/uVi/dv1q1fEA2+o3vvFwsf7ShuN/9pnvVp3/xU+Wj9/U36Z6bX8AZHr08WVVfQf+/h9rDrYDBwAAACCcAAcAAAAgnAAHAAAAIJwABwAAACCcAAcAAAAgnAAHAAAAIJwABwAAACDconUD2+6nP/95sX7P3XcV6w89cH+x/uobb91mR7/s4oV7i3X9ldX2t7f3k6rzp3vx+ZeL9UcfX1bVN40PkOqnX3+4XK89wYbxa03d352f/W7tGQBoYNPf75ts+9/3165f7WqOtwMHAAAAIJwABwAAACCcAAcAAAAgnAAHAAAAIJwABwAAACCcAAcAAAAgnAAHAAAAINyidoB/H/7tLPpo5p133ynW//iP/qRq/Nfe/kGxfvHCvcX6PXffVaw/9MD9xfqrb7xVrG+iv7dus6Nftqm/uXvx+Zerjn/286ti/dr1q8X6o48vq84PMJWjg67q+MPj8Yw6ybRpfn701YeL9W2fH4Bttenv/3TXrl+t+4KvZAcOAAAAQDgBDgAAAEA4AQ4AAABAOAEOAAAAQDgBDgAAAEA4AQ4AAABAOAEOAAAAQLjula9dGmsG+OLTd55VL5H+7ms/rTp+/8rNpv8nnmwnNy5XPX8nT9+qOv/+1y5VHf/NW09WHQ8wVx95/bmq4//jwS+dUSfbyfwCMIVr16/O+ve5HTgAAAAA4QQ4AAAAAOEEOAAAAADhBDgAAAAA4QQ4AAAAAOEEOAAAAADhBDgAAAAA4bpxHIsfOLlxufyBHbd/5eas/488bc39+frmrSdbtwAAAOyIa9ev7vTvbztwAAAAAMIJcAAAAADCCXAAAAAAwglwAAAAAMIJcAAAAADCCXAAAAAAwglwAAAAAMJ14zi27gF21smNy1UP4Mdev1X+wEfL5VfevVRz+r39Kze7qgGAWEfdhdYtTOpwfLt1CzTk/gZgjuzAAQAAAAgnwAEAAAAIJ8ABAAAACCfAAQAAAAgnwAEAAAAIJ8ABAAAACCfAAQAAAAi3aN0AUOH7lcc/eCZdAMQ5HN9u3QLBNt0fR92Fc+oEAH51duAAAAAAhBPgAAAAAIQT4AAAAACEE+AAAAAAhBPgAAAAAIQT4AAAAACEE+AAAAAAhFu0bgA4vVeevNS6hSp934+l+mq5Pq9WJnF4PHZTjm/+ysxP5fjj21MOX23T+u4d1E3P1PObbtufn40+XS5v+/0x9/VvvT7p89d6ftJZP5LZgQMAAAAQToADAAAAEE6AAwAAABBOgAMAAAAQToADAAAAEE6AAwAAABBOgAMAAAAQbtG6AeD0HvvQl4v1F9555pw6eW9934+l+mq5Pq9Wmjg66IrXf3g8dufVC8xN6/eH55eSud8frZ+vqc19fQDejx04AAAAAOEEOAAAAADhBDgAAAAA4QQ4AAAAAOEEOAAAAADhBDgAAAAA4QQ4AAAAAOG6cRxb9wA76+TG5aoH8M/e+Mti/QOXLhbrL7zzTM3p9/78C28X66vlumr8TQ6Px27K8fu+L66P6yubuv+pmZ9ptZ7f1uffdunz6/2efX1z779W+vOz7cw/yezAAQAAAAgnwAEAAAAIJ8ABAAAACCfAAQAAAAgnwAEAAAAIJ8ABAAAACCfAAQAAAAi3aN0AcHq/uPVasf6dB75yTp1M4/B47FqefxiG4vn7vh9L9dVyfbYNAXAmvN/rTP39bH0A3psdOAAAAADhBDgAAAAA4QQ4AAAAAOEEOAAAAADhBDgAAAAA4QQ4AAAAAOEEOAAAAADhFq0bAE7vpb94qXULAO+p7/uxVF8t11XjHx6PXc3xwzAUj6/t/+igKx5f2z/zVnt/TP187TrPL5DKDhwAAACAcAIcAAAAgHACHAAAAIBwAhwAAACAcAIcAAAAgHACHAAAAIBwAhwAAACAcIvWDcAu279ys2vdQ5Uv9GOpfPcddcN/+zNdcfwnvjE2nb9hGOa9fhvUrt+2Mz915j5/c++/tfT52/R+7/vy999XP7U+24ZuU+38tv5+3WTu61Mr/fnZduafluzAAQAAAAgnwAEAAAAIJ8ABAAAACCfAAQAAAAgnwAEAAAAIJ8ABAAAACCfAAQAAAAi3aN0AMF/DMHSlet/3Y/H4p9Z1DTzXFcdv7ktjcX7SPXFf5QDp67PB8FTrDrZb+v1l/adVvf7hWl9f6/Onm/v8zL3/uTP/tGQHDgAAAEA4AQ4AAABAOAEOAAAAQDgBDgAAAEA4AQ4AAABAOAEOAAAAQDgBDgAAAEC4ResGgO01DENXqvd9P5bq33psfbYNnbfPdsXre+TrY3F+Wnvph6072G6PtG6gsV2/v6x/3fHp89f6+lqfP93c52fu/c+d+aclO3AAAAAAwglwAAAAAMIJcAAAAADCCXAAAAAAwglwAAAAAMIJcAAAAADCCXAAAAAAwi1aNwDsrmEYutY9lPR9P5bqq+W6avw3D7ri+IfHY9P5efPHdce37r/W1Ov/SNXR7dXOz6b7K/3+qb7+8Od/arXvl/Tnp/X1tT5/uvT52fT3kfdPnV3//mLe7MABAAAACCfAAQAAAAgnwAEAAAAIJ8ABAAAACCfAAQAAAAgnwAEAAAAIJ8ABAAAACLdo3QBAqmEYulK97/uxVF8t12fbEAAAsLPswAEAAAAIJ8ABAAAACCfAAQAAAAgnwAEAAAAIJ8ABAAAACCfAAQAAAAgnwAEAAAAIJ8ABAAAACCfAAQAAAAgnwAEAAAAIJ8ABAAAACCfAAQAAAAgnwAEAAAAIJ8ABAAAACCfAAQAAAAi3aN0AMF9934+l+mq5rhr/8HjsqgYAgFOY+vst3dFBV7z+1t/Pu74+wO6yAwcAAAAgnAAHAAAAIJwABwAAACCcAAcAAAAgnAAHAAAAIJwABwAAACCcAAcAAAAg3KJ1AwBAnr7vx1J9tVxXjX94PHZVAzQ2DEOx/9r5OzroisfPff52Xe36TX3/7br05yv9/dP6+6P1+WFKduAAAAAAhBPgAAAAAIQT4AAAAACEE+AAAAAAhBPgAAAAAIQT4AAAAACEE+AAAAAAhFu0bgDg/RwddGOpfng8dlOev+/74vlXy/WUpwdgIt7vdab+frY+AO/NDhwAAACAcAIcAAAAgHACHAAAAIBwAhwAAACAcAIcAAAAgHACHAAAAIBwAhwAAACAcN04jq17ALZU3/fFF8xquT6vViIdHo9dzfHbPr/mp2zT/KRff+36ppv7/Kf3ny79/t719U1fn9amvj9av3+sP3NmBw4AAABAOAEOAAAAQDgBDgAAAEA4AQ4AAABAOAEOAAAAQDgBDgAAAEA4AQ4AAABAuEXrBoDtNQxDV6r3fT+W6qvl+mwbOmeHx2Px+gGYp7m/37f9+3nu6wPwfuzAAQAAAAgnwAEAAAAIJ8ABAAAACCfAAQAAAAgnwAEAAAAIJ8ABAAAACCfAAQAAAAj3f7bSkEnDQGDFAAAADmVYSWZNTQAqAAAACAAAAAAAAADSU5MAAAAASUVORK5CYII=" vertex="1" parent="1">
          <mxGeometry x="130" y="793.94" width="620" height="192.11" as="geometry" />
        </mxCell>
      </root>
    </mxGraphModel>
  </diagram>
</mxfile>
